<svg id="Capa_1" enable-background="new 0 0 512 512" height="512" viewBox="0 0 512 512" width="512" xmlns="http://www.w3.org/2000/svg" xmlns:xlink="http://www.w3.org/1999/xlink"><linearGradient id="SVGID_1_" gradientUnits="userSpaceOnUse" x1="256" x2="256" y1="450" y2="0"><stop offset="0" stop-color="#a93aff"/><stop offset="1" stop-color="#ff81ff"/></linearGradient><linearGradient id="SVGID_2_" gradientUnits="userSpaceOnUse" x1="202.035" x2="202.035" y1="512" y2="87.299"><stop offset="0" stop-color="#ffbef9"/><stop offset="1" stop-color="#fff1ff"/></linearGradient><g><g><g><path d="m473.2 121.8c-4.499-2.401-10.499-2.401-15 .3-.601.298-45.899 27.9-89.7 27.9s-89.099-27.601-89.7-27.9c-2.1-1.201-52.8-32.1-105.3-32.1-40.069 0-79.273 18.245-96.225 27.221l13.725-29.922c17.4-6 30-22.8 30-42.299 0-24.9-20.1-45-45-45-24.9 0-45 20.1-45 45 0 19.499 12.6 36.299 30 42.299l15 32.701v300c2.701 0 5.4-.601 7.8-2.1.601-.3 45.899-27.9 89.7-27.9s89.099 27.6 89.7 27.9c2.1 1.199 53.101 32.1 105.3 32.1 52.5 0 103.2-30.901 105.3-32.1 4.499-3.001 7.2-7.8 7.2-12.9v-270c0-5.4-2.999-10.501-7.8-13.2z" fill="url(#SVGID_1_)"/></g></g><g><g><path d="m342.338 246.826c-1.758-5.42-6.416-9.346-12.041-10.195l-31.582-4.775-14.297-28.564c-5.098-10.137-21.738-10.137-26.836 0l-14.297 28.564-31.582 4.775c-5.625.85-10.283 4.775-12.041 10.195-1.758 5.391-.293 11.338 3.75 15.322l22.764 22.412-5.244 31.523c-.938 5.596 1.377 11.25 5.977 14.59s10.723 3.779 15.732 1.172l28.359-14.706 28.359 14.707c2.168 1.143 4.541 1.699 6.914 1.699 3.105 0 6.211-.967 8.818-2.871 4.6-3.34 6.914-8.994 5.977-14.59l-5.244-31.523 22.764-22.412c4.043-3.985 5.508-9.932 3.75-15.323zm-281.338-159.527v409.701c0 8.399 6.599 15 15 15s15-6.601 15-15v-409.701c-4.799 1.8-9.6 2.701-15 2.701s-10.201-.901-15-2.701z" fill="url(#SVGID_2_)"/></g></g></g></svg>