<svg id="Capa_1" enable-background="new 0 0 512 512" height="512" viewBox="0 0 512 512" width="512" xmlns="http://www.w3.org/2000/svg" xmlns:xlink="http://www.w3.org/1999/xlink"><linearGradient id="SVGID_1_" gradientUnits="userSpaceOnUse" x1="256" x2="256" y1="512" y2="0"><stop offset="0" stop-color="#fd5900"/><stop offset="1" stop-color="#ffde00"/></linearGradient><linearGradient id="SVGID_2_" gradientUnits="userSpaceOnUse" x1="256" x2="256" y1="451.454" y2="59.546"><stop offset="0" stop-color="#ffe59a"/><stop offset="1" stop-color="#ffffd5"/></linearGradient><g><g><g><circle cx="256" cy="256" fill="url(#SVGID_1_)" r="256"/></g></g><g><g><path d="m378.719 255.848 48.002-82.29c2.706-4.639 2.726-10.372.05-15.029-2.675-4.657-7.636-7.529-13.007-7.529h-95.981l-48.814-83.991c-2.685-4.62-7.625-7.463-12.969-7.463s-10.284 2.843-12.969 7.463l-48.814 83.991h-95.981c-5.371 0-10.332 2.872-13.007 7.529-2.676 4.657-2.656 10.39.05 15.029l48.002 82.29-48.014 82.615c-2.696 4.64-2.709 10.367-.032 15.019 2.677 4.651 7.635 7.518 13.001 7.518h96.383l48.423 83.012c2.688 4.608 7.622 7.442 12.957 7.442s10.269-2.833 12.957-7.442l48.424-83.012h96.383c5.366 0 10.324-2.867 13.001-7.519s2.664-10.379-.032-15.019zm8.929-74.848-26.263 45.023-26.167-45.023zm-131.648-76.602 27.084 46.602h-54.168zm-131.648 76.602h52.43l-26.167 45.023zm-.048 150 26.359-45.355 26.457 45.355zm131.696 75.685-26.649-45.685h53.298zm44.149-75.685h-88.298l-43.854-75.18 43.483-74.82h89.039l43.484 74.82zm34.731 0 26.457-45.355 26.359 45.355z" fill="url(#SVGID_2_)"/></g></g></g></svg>