<svg id="Capa_1" enable-background="new 0 0 512 512" height="512" viewBox="0 0 512 512" width="512" xmlns="http://www.w3.org/2000/svg" xmlns:xlink="http://www.w3.org/1999/xlink"><linearGradient id="SVGID_1_" gradientUnits="userSpaceOnUse" x1="74.981" x2="437.019" y1="437.019" y2="74.981"><stop offset="0" stop-color="#ff726d"/><stop offset="1" stop-color="#ffde00"/></linearGradient><radialGradient id="SVGID_2_" cx="257.014" cy="256" gradientUnits="userSpaceOnUse" r="256"><stop offset=".106" stop-color="#ff726d"/><stop offset=".9251" stop-color="#ffac33" stop-opacity=".034"/><stop offset=".9537" stop-color="#ffae31" stop-opacity="0"/></radialGradient><linearGradient id="SVGID_3_" gradientUnits="userSpaceOnUse" x1="-2.758" x2="428.117" y1="527.601" y2="96.727"><stop offset="0" stop-color="#fca200"/><stop offset=".2032" stop-color="#fdb739"/><stop offset=".5981" stop-color="#fedda2"/><stop offset=".8721" stop-color="#fff6e5"/><stop offset="1" stop-color="#fff"/></linearGradient><linearGradient id="SVGID_4_" gradientUnits="userSpaceOnUse" x1="17.906" x2="421.606" y1="506.937" y2="103.237"><stop offset="0" stop-color="#fca200"/><stop offset=".0959" stop-color="#fca810"/><stop offset=".2822" stop-color="#fdb738"/><stop offset=".5403" stop-color="#fdcf7a"/><stop offset=".8573" stop-color="#feefd4"/><stop offset="1" stop-color="#fff"/></linearGradient><linearGradient id="SVGID_5_" gradientUnits="userSpaceOnUse" x1="-19.14" x2="202.471" y1="348.002" y2="126.391"><stop offset=".1229" stop-color="#ff726d" stop-opacity=".7"/><stop offset=".2525" stop-color="#fe8054" stop-opacity=".597"/><stop offset=".4706" stop-color="#fd9530" stop-opacity=".423"/><stop offset=".6746" stop-color="#fda415" stop-opacity=".26"/><stop offset=".8571" stop-color="#fcad06" stop-opacity=".114"/><stop offset="1" stop-color="#fcb000" stop-opacity="0"/></linearGradient><linearGradient id="SVGID_6_" gradientUnits="userSpaceOnUse" x1="49.81" x2="272.862" y1="485.686" y2="262.634"><stop offset="0" stop-color="#ff726d" stop-opacity=".7"/><stop offset=".6714" stop-color="#fd9e20" stop-opacity=".23"/><stop offset="1" stop-color="#fcb000" stop-opacity="0"/></linearGradient><linearGradient id="SVGID_7_" gradientTransform="matrix(.309 .951 -.951 .309 420.362 -66.579)" gradientUnits="userSpaceOnUse" x1="363.649" x2="206.555" y1="357.263" y2="52.272"><stop offset="0" stop-color="#fcb000"/><stop offset=".0363" stop-color="#fcb510"/><stop offset=".1925" stop-color="#fdc84e"/><stop offset=".3471" stop-color="#fed984"/><stop offset=".4965" stop-color="#fee7b0"/><stop offset=".6394" stop-color="#fef1d2"/><stop offset=".7743" stop-color="#fff9eb"/><stop offset=".8979" stop-color="#fffdfa"/><stop offset="1" stop-color="#fff"/></linearGradient><g><circle cx="256" cy="256" fill="url(#SVGID_1_)" r="256"/><circle cx="256" cy="256" fill="url(#SVGID_2_)" r="256"/><path d="m248.934 380.16c-34.955 18.579-69.563 36.846-103.623 54.453-10.825 5.603-23.994-4.292-22.282-16.653 5.444-38.852 11.448-77.838 17.84-116.931.808-4.944-.88-10.01-4.524-13.538-28.814-27.902-57.607-55.556-86.014-82.622-9.057-8.61-3.811-23.752 8.803-25.725 39.595-6.138 79.153-12.273 118.653-18.268 4.996-.759 9.33-3.92 11.59-8.461 17.878-35.904 35.716-71.903 53.144-107.833 5.556-11.453 21.402-11.453 26.958 0 17.428 35.929 35.266 71.929 53.144 107.833 2.261 4.541 6.595 7.703 11.59 8.461 39.5 5.996 79.058 12.13 118.653 18.268 12.613 1.973 17.859 17.116 8.803 25.725-28.407 27.066-57.199 54.72-86.014 82.622-3.644 3.529-5.333 8.594-4.524 13.538 6.392 39.093 12.396 78.079 17.84 116.931 1.712 12.361-11.457 22.256-22.282 16.653-34.061-17.607-68.668-35.874-103.623-54.453-4.42-2.35-9.711-2.35-14.132 0z" fill="url(#SVGID_3_)"/><path d="m388.971 417.96c-5.446-38.794-11.45-77.722-17.842-116.756-90.291 10.105-175.472-51.525-193.343-140.328-39.5 5.996-79.058 12.13-118.653 18.268-12.614 1.973-17.859 17.116-8.803 25.725 28.407 27.066 57.199 54.72 86.014 82.622 3.644 3.528 5.333 8.594 4.525 13.538-6.392 39.093-12.396 78.079-17.84 116.931-1.712 12.361 11.457 22.256 22.282 16.653 34.061-17.607 68.669-35.874 103.623-54.454 4.421-2.349 9.711-2.349 14.132 0 34.955 18.58 69.563 36.846 103.623 54.454 10.826 5.603 23.994-4.291 22.282-16.653z" fill="url(#SVGID_4_)"/><path d="m121.555 257.213c-14.104-28.808-2.038-64.674 26.439-80.153 9.938-5.388 19.87-10.785 29.792-16.184-39.5 5.995-79.058 12.13-118.653 18.268-12.613 1.973-17.859 17.116-8.803 25.725 28.406 27.065 57.199 54.719 86.013 82.621-4.945-10.111-9.877-20.205-14.788-30.277z" fill="url(#SVGID_5_)"/><path d="m215.874 384.53c-31.456 4.073-62.351-18.845-68.59-50.413-2.156-11.037-4.296-22.066-6.416-33.088-6.392 39.093-12.395 78.079-17.84 116.931-1.712 12.361 11.457 22.256 22.282 16.653 34.061-17.607 68.668-35.874 103.623-54.453-11.028 1.488-22.048 2.945-33.059 4.37z" fill="url(#SVGID_6_)"/><path d="m390.445 257.214c-4.911 10.073-9.843 20.166-14.789 30.277 28.814-27.902 57.607-55.556 86.013-82.621 9.056-8.61 3.81-23.753-8.803-25.725-39.595-6.138-79.153-12.272-118.653-18.268 9.922 5.399 19.854 10.796 29.792 16.184 28.478 15.479 40.544 51.345 26.44 80.153z" fill="url(#SVGID_7_)"/></g></svg>