<svg id="Capa_1" enable-background="new 0 0 512 512" height="512" viewBox="0 0 512 512" width="512" xmlns="http://www.w3.org/2000/svg" xmlns:xlink="http://www.w3.org/1999/xlink"><linearGradient id="SVGID_1_" gradientUnits="userSpaceOnUse" x1="309" x2="309" y1="485.2" y2="0"><stop offset="0" stop-color="#ffbef9"/><stop offset="1" stop-color="#fff1ff"/></linearGradient><linearGradient id="SVGID_2_" gradientUnits="userSpaceOnUse" x1="203" x2="203" y1="512" y2="7.899"><stop offset="0" stop-color="#a93aff"/><stop offset="1" stop-color="#ff81ff"/></linearGradient><g><g><g><path d="m256 0c-20.099 0-39.6 3.398-58.5 7.899l-91.5 53.101 16.084 329.625 245.217 94.575c85.199-41.101 144.699-128.4 144.699-229.2 0-140.7-115.3-256-256-256z" fill="url(#SVGID_1_)"/></g></g><g><g><path d="m271 256c-74.7 0-135-60.3-135-135 0-47.4 24.3-89.401 61.5-113.101-112.5 26.401-197.5 127.5-197.5 248.101 0 140.7 115.3 256 256 256 39.901 0 77.701-10.3 111.301-26.8 24.3-24.302 38.699-57.601 38.699-94.2 0-74.7-60.3-135-135-135zm-15 165c-24.901 0-45-20.102-45-45 0-24.9 20.099-45 45-45s45 20.1 45 45c0 24.898-20.099 45-45 45zm0-240c24.814 0 45-20.186 45-45s-20.186-45-45-45-45 20.186-45 45 20.186 45 45 45z" fill="url(#SVGID_2_)"/></g></g></g></svg>