<svg height="512" viewBox="0 0 512 512" width="512" xmlns="http://www.w3.org/2000/svg" xmlns:xlink="http://www.w3.org/1999/xlink"><linearGradient id="linear-gradient" gradientUnits="userSpaceOnUse" x1="115.14" x2="396.498" y1="413.205" y2="131.847"><stop offset="0" stop-color="#fff"/><stop offset=".03" stop-color="#41dfd0"/><stop offset="1" stop-color="#ee83ef"/></linearGradient><g id="gradient"><path d="m319.292 117.984a14.175 14.175 0 0 0 -13.516-9.819h-27.7l-8.56-26.345a14.212 14.212 0 0 0 -27.032 0l-8.56 26.345h-27.7a14.212 14.212 0 0 0 -8.354 25.709l22.41 16.281-8.56 26.345a14.206 14.206 0 0 0 21.87 15.888l22.41-16.281 22.41 16.282a14.212 14.212 0 0 0 21.87-15.889l-8.56-26.345 22.41-16.282a14.175 14.175 0 0 0 5.162-15.889zm-41.679 22.643a8 8 0 0 0 -2.906 8.945l8.655 26.638-22.662-16.463a8 8 0 0 0 -9.4 0l-22.66 16.463 8.655-26.638a8 8 0 0 0 -2.906-8.945l-22.658-16.462h28.007a8 8 0 0 0 7.609-5.528l8.653-26.637 8.655 26.638a8 8 0 0 0 7.609 5.528h28.007zm-120.88 91.358a12.933 12.933 0 0 0 12.288-16.922l-6.408-19.72 16.776-12.188a12.921 12.921 0 0 0 -7.595-23.374h-20.735l-6.408-19.72a12.921 12.921 0 0 0 -24.577 0l-6.408 19.721h-20.736a12.921 12.921 0 0 0 -7.6 23.374l16.776 12.188-6.406 19.72a12.921 12.921 0 0 0 19.882 14.447l16.776-12.189 16.776 12.189a12.909 12.909 0 0 0 7.599 2.474zm-29.074-31.024-13.81 10.039 5.276-16.236a8 8 0 0 0 -2.907-8.946l-13.81-10.033h17.071a8 8 0 0 0 7.608-5.527l5.275-16.236 5.276 16.236a8 8 0 0 0 7.608 5.527h17.07l-13.81 10.034a8 8 0 0 0 -2.906 8.945l5.275 16.236-13.811-10.035a8 8 0 0 0 -9.404-.004zm-20.59 62.82h-20.735l-6.408-19.72a12.92 12.92 0 0 0 -24.576 0l-6.409 19.721h-20.735a12.921 12.921 0 0 0 -7.595 23.374l16.776 12.188-6.408 19.721a12.921 12.921 0 0 0 19.883 14.447l16.776-12.189 16.776 12.189a12.921 12.921 0 0 0 19.886-14.449l-6.407-19.72 16.776-12.188a12.921 12.921 0 0 0 -7.6-23.374zm-23.287 26.033a8 8 0 0 0 -2.907 8.946l5.276 16.24-13.811-10.039a8 8 0 0 0 -9.4 0l-13.815 10.039 5.275-16.24a8 8 0 0 0 -2.906-8.945l-13.81-10.034h17.07a8 8 0 0 0 7.608-5.527l5.276-16.236 5.275 16.236a8 8 0 0 0 7.608 5.527h17.071zm399.288-26.033h-20.736l-6.408-19.72a12.92 12.92 0 0 0 -24.576 0l-6.409 19.721h-20.735a12.921 12.921 0 0 0 -7.6 23.374l16.776 12.188-6.408 19.721a12.921 12.921 0 0 0 19.883 14.447l16.776-12.189 16.776 12.189a12.921 12.921 0 0 0 19.891-14.449l-6.407-19.72 16.776-12.188a12.921 12.921 0 0 0 -7.6-23.374zm-23.288 26.033a8 8 0 0 0 -2.907 8.946l5.276 16.24-13.811-10.039a8 8 0 0 0 -9.4 0l-13.815 10.039 5.275-16.24a8 8 0 0 0 -2.906-8.945l-13.81-10.034h17.07a8 8 0 0 0 7.608-5.527l5.276-16.236 5.275 16.236a8 8 0 0 0 7.608 5.527h17.071zm-55.774-57.829a12.932 12.932 0 0 0 12.292-16.922l-6.407-19.72 16.776-12.188a12.921 12.921 0 0 0 -7.6-23.374h-20.735l-6.408-19.72a12.92 12.92 0 0 0 -24.576 0l-6.409 19.721h-20.735a12.921 12.921 0 0 0 -7.6 23.374l16.776 12.188-6.408 19.721a12.921 12.921 0 0 0 19.883 14.447l16.776-12.189 16.776 12.189a12.906 12.906 0 0 0 7.599 2.473zm-29.073-31.024-13.81 10.039 5.275-16.24a8 8 0 0 0 -2.906-8.945l-13.81-10.034h17.07a8 8 0 0 0 7.608-5.527l5.276-16.236 5.275 16.236a8 8 0 0 0 7.608 5.527h17.071l-13.81 10.033a8 8 0 0 0 -2.907 8.946l5.276 16.24-13.811-10.039a8 8 0 0 0 -9.404 0zm-22.935 103.739h-56v-40a32.037 32.037 0 0 0 -32-32h-16a8 8 0 0 0 -7.919 6.868l-2.941 20.584a60.273 60.273 0 0 1 -31.15 44.548h-61.99a8 8 0 0 0 -8 8v112a8 8 0 0 0 8 8h61.578l5.237 3.492a74.243 74.243 0 0 0 41.313 12.508h91.872a23.988 23.988 0 0 0 17.874-40 23.958 23.958 0 0 0 0-32 23.96 23.96 0 0 0 3.034-27.774 24 24 0 0 0 -12.908-44.226zm-200 16h48v96h-48zm200 16h-8a8 8 0 0 0 0 16 8 8 0 0 1 0 16 8 8 0 0 0 0 16 8 8 0 0 1 0 16 8 8 0 0 0 0 16 8 8 0 0 1 0 16h-91.872a58.3 58.3 0 0 1 -32.438-9.821l-3.69-2.46v-102.965a76.292 76.292 0 0 0 36.979-55.044l1.959-13.715h9.062a16.019 16.019 0 0 1 16 16v48a8 8 0 0 0 8 8h64a8 8 0 0 1 0 16z" fill="url(#linear-gradient)"/></g></svg>