<svg id="Capa_1" enable-background="new 0 0 512 512" height="512" viewBox="0 0 512 512" width="512" xmlns="http://www.w3.org/2000/svg" xmlns:xlink="http://www.w3.org/1999/xlink"><linearGradient id="SVGID_1_" gradientUnits="userSpaceOnUse" x1="239.803" x2="239.803" y1="357.719" y2="224.244"><stop offset="0" stop-color="#addcff"/><stop offset=".5028" stop-color="#eaf6ff"/><stop offset="1" stop-color="#eaf6ff"/></linearGradient><linearGradient id="SVGID_2_" gradientUnits="userSpaceOnUse" x1="256" x2="256" y1="451" y2="61"><stop offset="0" stop-color="#5558ff"/><stop offset="1" stop-color="#00c0ff"/></linearGradient><g><g><g><path d="m214.398 330.238-81.156-53.438c-6.914-4.614-16.23-2.739-20.801 4.16-4.6 6.899-2.739 16.201 4.16 20.801l81.156 53.438c2.563 1.699 5.449 2.52 8.306 2.52 4.849 0 9.609-2.344 12.495-6.68 4.6-6.899 2.74-16.201-4.16-20.801zm149.008-103.198c-6.709-4.819-16.084-3.252-20.918 3.486l-63.813 87.935c-4.819 6.738-3.252 16.113 3.486 20.918 2.637 1.89 5.684 2.798 8.701 2.798 4.688 0 9.287-2.183 12.217-6.284l63.813-87.935c4.82-6.738 3.253-16.113-3.486-20.918z" fill="url(#SVGID_1_)"/></g></g><g><g><path d="m75 181c-41.353 0-75 33.647-75 75s33.647 75 75 75 75-33.647 75-75-33.647-75-75-75zm181 120c-41.353 0-75 33.647-75 75s33.647 75 75 75 75-33.647 75-75-33.647-75-75-75zm151-240c-57.891 0-105 47.109-105 105s47.109 105 105 105 105-47.109 105-105-47.109-105-105-105z" fill="url(#SVGID_2_)"/></g></g></g></svg>