<svg id="Capa_1" enable-background="new 0 0 512 512" height="512" viewBox="0 0 512 512" width="512" xmlns="http://www.w3.org/2000/svg" xmlns:xlink="http://www.w3.org/1999/xlink"><linearGradient id="lg1"><stop offset="0" stop-color="#ff2f2b"/><stop offset="1" stop-color="#ff9ceb"/></linearGradient><linearGradient id="SVGID_1_" gradientUnits="userSpaceOnUse" x1="74.981" x2="437.019" xlink:href="#lg1" y1="437.019" y2="74.981"/><radialGradient id="SVGID_2_" cx="256" cy="256" gradientUnits="userSpaceOnUse" r="258.6"><stop offset="0" stop-color="#ff2f2b"/><stop offset=".8734" stop-color="#ff8ed2" stop-opacity=".127"/><stop offset="1" stop-color="#ff9ceb" stop-opacity="0"/></radialGradient><linearGradient id="lg2"><stop offset="0" stop-color="#ffd6ef"/><stop offset="1" stop-color="#fff"/></linearGradient><linearGradient id="SVGID_3_" gradientUnits="userSpaceOnUse" x1="172.711" x2="572.395" xlink:href="#lg2" y1="391.687" y2="-7.997"/><linearGradient id="SVGID_4_" gradientUnits="userSpaceOnUse" x1="132.436" x2="401.628" xlink:href="#lg1" y1="432.581" y2="163.388"/><radialGradient id="SVGID_5_" cx="212.012" cy="256" gradientUnits="userSpaceOnUse" r="235.343"><stop offset=".4194" stop-color="#ff2f2b"/><stop offset=".4673" stop-color="#ff4654" stop-opacity=".918"/><stop offset=".523" stop-color="#ff5d7c" stop-opacity=".822"/><stop offset=".5825" stop-color="#ff709e" stop-opacity=".719"/><stop offset=".6454" stop-color="#ff80ba" stop-opacity=".611"/><stop offset=".7128" stop-color="#ff8dd0" stop-opacity=".495"/><stop offset=".7871" stop-color="#ff95df" stop-opacity=".367"/><stop offset=".8733" stop-color="#ff9ae8" stop-opacity=".218"/><stop offset="1" stop-color="#ff9ceb" stop-opacity="0"/></radialGradient><linearGradient id="SVGID_6_" gradientUnits="userSpaceOnUse" x1="-81.421" x2="381.52" xlink:href="#lg2" y1="548.525" y2="85.583"/><linearGradient id="SVGID_7_" gradientUnits="userSpaceOnUse" x1="92.011" x2="333.951" xlink:href="#lg2" y1="375.146" y2="133.206"/><g><circle cx="256" cy="256" fill="url(#SVGID_1_)" r="256"/><circle cx="256" cy="256" fill="url(#SVGID_2_)" r="256"/><path d="m308.5 86.064c-90.576-.671-168.437 77.23-168.931 169.936.495 92.706 78.355 170.608 168.931 169.936 90.535-1.236 170.917-79.138 171.369-169.936-.452-90.798-80.834-168.7-171.369-169.936z" fill="url(#SVGID_3_)"/><path d="m309.071 132.131c-67.134-.397-123.183 55.816-123.377 123.869.194 68.054 56.244 124.266 123.377 123.869 67.112-.617 124.501-56.83 124.673-123.869-.172-67.039-57.561-123.253-124.673-123.869z" fill="url(#SVGID_4_)"/><path d="m308.5 86.064c-90.576-.671-168.437 77.23-168.931 169.936.495 92.706 78.355 170.608 168.931 169.936 90.535-1.236 170.917-79.138 171.369-169.936-.452-90.798-80.834-168.7-171.369-169.936z" fill="url(#SVGID_5_)"/><path d="m211 86.064c-90.681 1.239-170.914 78.991-171.369 169.936.455 90.944 80.688 168.697 171.369 169.936 90.723.671 168.436-77.081 168.931-169.936-.495-92.855-78.208-170.608-168.931-169.936z" fill="url(#SVGID_6_)"/><path d="m240.78 380.002c-92.001-.578-171.208-77.65-170.06-169.294.363-24.473 6.379-47.783 16.631-68.99-29.094 30.56-47.75 70.562-47.72 114.282.455 90.944 80.688 168.697 171.369 169.936 67.017.629 125.907-41.485 153.506-100.392-31.42 33.324-75.33 54.596-123.726 54.458z" fill="url(#SVGID_7_)"/></g></svg>