<svg id="Capa_1" enable-background="new 0 0 512 512" height="512" viewBox="0 0 512 512" width="512" xmlns="http://www.w3.org/2000/svg" xmlns:xlink="http://www.w3.org/1999/xlink"><linearGradient id="lg1"><stop offset="0" stop-color="#364aff"/><stop offset="1" stop-color="#fc54ff"/></linearGradient><linearGradient id="SVGID_1_" gradientUnits="userSpaceOnUse" x1="74.98" x2="437.019" xlink:href="#lg1" y1="437.017" y2="74.978"/><radialGradient id="SVGID_2_" cx="256" cy="256" gradientUnits="userSpaceOnUse" r="256"><stop offset=".095" stop-color="#8d00db" stop-opacity=".66"/><stop offset=".2822" stop-color="#9f0de1" stop-opacity=".523"/><stop offset=".6541" stop-color="#cc30f0" stop-opacity=".252"/><stop offset="1" stop-color="#fc54ff" stop-opacity="0"/></radialGradient><linearGradient id="SVGID_3_" gradientUnits="userSpaceOnUse" x1="-82.404" x2="433.95" y1="594.404" y2="78.05"><stop offset="0" stop-color="#fda0ff"/><stop offset="1" stop-color="#fff"/></linearGradient><linearGradient id="SVGID_4_" gradientUnits="userSpaceOnUse" x1="204.92" x2="328.853" xlink:href="#lg1" y1="451.731" y2="327.799"/><linearGradient id="SVGID_5_" gradientUnits="userSpaceOnUse" x1="256" x2="256" y1="423.903" y2="305.905"><stop offset="0" stop-color="#8d00db" stop-opacity=".66"/><stop offset=".1027" stop-color="#a613e3" stop-opacity=".592"/><stop offset=".2582" stop-color="#c52aed" stop-opacity=".49"/><stop offset=".421" stop-color="#dd3df5" stop-opacity=".382"/><stop offset=".592" stop-color="#ee4afb" stop-opacity=".269"/><stop offset=".7768" stop-color="#f952fe" stop-opacity=".147"/><stop offset="1" stop-color="#fc54ff" stop-opacity="0"/></linearGradient><linearGradient id="SVGID_6_" gradientUnits="userSpaceOnUse" x1="146.841" x2="334.727" xlink:href="#lg1" y1="498.435" y2="310.549"/><linearGradient id="SVGID_7_" gradientTransform="matrix(-1 0 0 -1 512 711)" gradientUnits="userSpaceOnUse" x1="397.292" x2="216.879" xlink:href="#lg1" y1="458.36" y2="638.773"/><linearGradient id="SVGID_8_" gradientTransform="matrix(-1 0 0 -1 512 711)" gradientUnits="userSpaceOnUse" x1="377.918" x2="176.081" xlink:href="#lg1" y1="466.358" y2="668.195"/><linearGradient id="SVGID_9_" gradientUnits="userSpaceOnUse" x1="256" x2="256" y1="78.505" y2="203.118"><stop offset="0" stop-color="#8d00db" stop-opacity=".66"/><stop offset=".0117" stop-color="#9002dc" stop-opacity=".651"/><stop offset=".1924" stop-color="#b61fe8" stop-opacity=".514"/><stop offset=".3713" stop-color="#d536f2" stop-opacity=".378"/><stop offset=".5459" stop-color="#eb47f9" stop-opacity=".246"/><stop offset=".7142" stop-color="#f851fe" stop-opacity=".118"/><stop offset=".8692" stop-color="#fc54ff" stop-opacity="0"/></linearGradient><g><circle cx="256" cy="256" fill="url(#SVGID_1_)" r="256"/><circle cx="256" cy="256" fill="url(#SVGID_2_)" r="256"/><path d="m282.63 256c32.597-56.4 65.046-112.359 95.7-165.448 3.876-6.707 3.623-15.257-.609-22.527-4.234-7.263-11.783-12.135-19.819-12.662-67.935-4.451-135.87-4.451-203.805 0-8.036.528-15.585 5.399-19.819 12.662-4.232 7.267-4.484 15.82-.609 22.527 30.655 53.089 63.103 109.048 95.701 165.448-32.597 56.4-65.046 112.359-95.7 165.448-3.876 6.706-3.623 15.257.609 22.527 4.233 7.262 11.783 12.135 19.819 12.662 67.935 4.451 135.87 4.451 203.805 0 8.036-.528 15.585-5.398 19.819-12.662 4.232-7.269 4.484-15.82.609-22.527-30.655-53.089-63.103-109.048-95.701-165.448z" fill="url(#SVGID_3_)"/><path d="m319.562 412.865c-31.148-18.235-62.68-37.547-94.408-57.143-11.024 19.196-21.951 38.277-32.717 57.143 42.376 1.313 84.75 1.313 127.125 0z" fill="url(#SVGID_4_)"/><path d="m192.438 412.865c20.743-36.352 42.088-73.498 63.562-110.74 21.475 37.242 42.819 74.388 63.562 110.74-42.375 1.313-84.749 1.313-127.124 0z" fill="url(#SVGID_5_)"/><path d="m319.562 412.865c-20.743-36.352-42.088-73.498-63.562-110.74-10.329 17.913-20.629 35.805-30.846 53.596 18.011 34.595 53.503 58.478 94.408 57.144z" fill="url(#SVGID_6_)"/><path d="m192.438 99.135c31.148 18.235 62.68 37.548 94.408 57.144 11.024-19.197 21.951-38.277 32.717-57.144-42.376-1.313-84.75-1.313-127.125 0z" fill="url(#SVGID_7_)"/><path d="m192.438 99.135c20.743 36.353 42.088 73.499 63.562 110.74 10.329-17.913 20.629-35.805 30.846-53.596-18.011-34.595-53.504-58.48-94.408-57.144z" fill="url(#SVGID_8_)"/><path d="m192.438 99.135c20.743 36.353 42.088 73.499 63.562 110.74 21.475-37.241 42.819-74.387 63.562-110.74-42.375-1.313-84.749-1.313-127.124 0z" fill="url(#SVGID_9_)"/></g></svg>