<svg xmlns="http://www.w3.org/2000/svg" xmlns:xlink="http://www.w3.org/1999/xlink" id="Capa_1" width="512" height="512" enable-background="new 0 0 512 512" viewBox="0 0 512 512"><linearGradient id="lg1"><stop offset="0" stop-color="#ff2f2b"/><stop offset="1" stop-color="#ff9ceb"/></linearGradient><linearGradient id="SVGID_1_" x1="74.981" x2="437.019" y1="437.019" y2="74.981" gradientUnits="userSpaceOnUse" xlink:href="#lg1"/><radialGradient id="SVGID_2_" cx="256.001" cy="256" r="258.6" gradientUnits="userSpaceOnUse"><stop offset="0" stop-color="#ff2f2b" stop-opacity=".6"/><stop offset=".106" stop-color="#f33" stop-opacity=".536"/><stop offset=".263" stop-color="#ff3e47" stop-opacity=".442"/><stop offset=".452" stop-color="#ff5167" stop-opacity=".329"/><stop offset=".665" stop-color="#ff6b95" stop-opacity=".201"/><stop offset=".896" stop-color="#ff8cce" stop-opacity=".063"/><stop offset="1" stop-color="#ff9ceb" stop-opacity="0"/></radialGradient><linearGradient id="SVGID_3_" x1="28.847" x2="434.798" y1="483.153" y2="77.202" gradientUnits="userSpaceOnUse"><stop offset="0" stop-color="#ffd6ef"/><stop offset="1" stop-color="#fff"/></linearGradient><linearGradient id="SVGID_4_" x1="197.804" x2="291.324" y1="167.255" y2="73.735" gradientUnits="userSpaceOnUse" xlink:href="#lg1"/><linearGradient id="SVGID_5_" x1="215.526" x2="290.177" y1="149.83" y2="75.179" gradientUnits="userSpaceOnUse" xlink:href="#lg1"/><linearGradient id="lg2"><stop offset="0" stop-color="#ff9ceb" stop-opacity="0"/><stop offset=".106" stop-color="#ff98e4" stop-opacity=".106"/><stop offset=".264" stop-color="#ff8cd0" stop-opacity=".264"/><stop offset=".453" stop-color="#ff7aaf" stop-opacity=".453"/><stop offset=".667" stop-color="#ff6081" stop-opacity=".667"/><stop offset=".899" stop-color="#ff3e47" stop-opacity=".9"/><stop offset="1" stop-color="#ff2f2b"/></linearGradient><radialGradient id="SVGID_6_" cx="256" cy="108.913" r="56.137" gradientUnits="userSpaceOnUse" xlink:href="#lg2"/><linearGradient id="SVGID_7_" x1="50.862" x2="144.382" y1="314.197" y2="220.677" gradientUnits="userSpaceOnUse" xlink:href="#lg1"/><linearGradient id="SVGID_8_" x1="68.531" x2="143.332" y1="296.773" y2="221.972" gradientUnits="userSpaceOnUse" xlink:href="#lg1"/><radialGradient id="SVGID_9_" cx="108.913" cy="256" r="56.137" gradientUnits="userSpaceOnUse" xlink:href="#lg2"/><linearGradient id="SVGID_10_" x1="344.745" x2="438.265" y1="314.197" y2="220.677" gradientUnits="userSpaceOnUse" xlink:href="#lg1"/><linearGradient id="SVGID_11_" x1="365.492" x2="440.529" y1="293.712" y2="218.674" gradientUnits="userSpaceOnUse" xlink:href="#lg1"/><radialGradient id="SVGID_12_" cx="403.088" cy="256" r="56.137" gradientUnits="userSpaceOnUse" xlink:href="#lg2"/><linearGradient id="SVGID_13_" x1="197.804" x2="291.324" y1="461.138" y2="367.618" gradientUnits="userSpaceOnUse" xlink:href="#lg1"/><linearGradient id="SVGID_14_" x1="217.081" x2="291.655" y1="442.147" y2="367.572" gradientUnits="userSpaceOnUse" xlink:href="#lg1"/><radialGradient id="SVGID_15_" cx="256" cy="403.088" r="56.137" gradientUnits="userSpaceOnUse" xlink:href="#lg2"/><g><circle cx="256" cy="256" r="256" fill="url(#SVGID_1_)"/><circle cx="256" cy="256" r="256" fill="url(#SVGID_2_)"/><path fill="url(#SVGID_3_)" d="m402.609 172.269c-38.478-.477-70.835 25.323-80.877 60.714-14.225-.02-28.45-.033-42.675-.04-.007-14.225-.02-28.45-.04-42.675 35.39-10.042 61.191-42.399 60.714-80.877-.658-46.404-38.405-85.018-83.731-85.041-45.326.023-83.074 38.637-83.731 85.041-.477 38.478 25.323 70.835 60.714 80.877-.02 14.225-.033 28.45-.04 42.675-14.225.007-28.45.02-42.675.04-10.042-35.391-42.4-61.191-80.877-60.714-46.404.658-85.018 38.404-85.041 83.731.023 45.327 38.638 83.073 85.041 83.731 38.477.477 70.835-25.323 80.877-60.714 14.225.02 28.45.033 42.675.04.007 14.225.02 28.45.04 42.675-35.39 10.042-61.191 42.399-60.714 80.877.657 46.404 38.405 85.018 83.731 85.041 45.326-.023 83.073-38.637 83.731-85.041.477-38.478-25.323-70.835-60.714-80.877.02-14.225.033-28.45.04-42.675 14.225-.007 28.45-.02 42.675-.04 10.042 35.391 42.4 61.191 80.877 60.714 46.403-.657 85.018-38.404 85.041-83.731-.023-45.327-38.637-83.073-85.041-83.731z"/><path fill="url(#SVGID_4_)" d="m294.06 109.011c.126 21.176-16.964 38.334-38.06 38.339-21.095-.005-38.186-17.163-38.06-38.339.132-21.173 17.223-38.535 38.06-38.536 20.837.001 37.927 17.364 38.06 38.536z"/><path fill="url(#SVGID_5_)" d="m263.627 124.291c-21.037-.023-38.079-17.172-37.972-38.342-4.792 6.445-7.67 14.434-7.715 23.062-.127 21.176 16.964 38.334 38.06 38.339 21.095-.005 38.186-17.163 38.06-38.339-6.901 9.276-17.97 15.291-30.433 15.28z"/><path fill="url(#SVGID_6_)" d="m294.06 109.011c.126 21.176-16.964 38.334-38.06 38.339-21.095-.005-38.186-17.163-38.06-38.339.132-21.173 17.223-38.535 38.06-38.536 20.837.001 37.927 17.364 38.06 38.536z"/><path fill="url(#SVGID_7_)" d="m147.35 256c-.005 21.096-17.163 38.186-38.339 38.06-21.173-.132-38.535-17.223-38.536-38.06.001-20.837 17.363-37.927 38.536-38.06 21.176-.126 38.334 16.965 38.339 38.06z"/><path fill="url(#SVGID_8_)" d="m116.615 271.239c-21.179-.064-38.476-17.092-38.409-37.945-4.848 6.351-7.732 14.207-7.731 22.706.001 20.837 17.363 37.927 38.536 38.06 21.176.126 38.334-16.964 38.339-38.06-7.019 9.271-18.176 15.266-30.735 15.239z"/><path fill="url(#SVGID_9_)" d="m147.35 256c-.005 21.096-17.163 38.186-38.339 38.06-21.173-.132-38.535-17.223-38.536-38.06.001-20.837 17.363-37.927 38.536-38.06 21.176-.126 38.334 16.965 38.339 38.06z"/><path fill="url(#SVGID_10_)" d="m441.525 256c-.001 20.837-17.364 37.927-38.536 38.06-21.176.126-38.334-16.964-38.339-38.06.005-21.095 17.163-38.186 38.339-38.06 21.172.133 38.535 17.223 38.536 38.06z"/><path fill="url(#SVGID_11_)" d="m410.758 271.208c-21.183.064-38.381-17.034-38.448-38.103-4.808 6.373-7.66 14.306-7.66 22.895.005 21.096 17.163 38.186 38.339 38.06 21.173-.132 38.535-17.223 38.536-38.06-7.02 9.17-18.209 15.178-30.767 15.208z"/><path fill="url(#SVGID_12_)" d="m441.525 256c-.001 20.837-17.364 37.927-38.536 38.06-21.176.126-38.334-16.964-38.339-38.06.005-21.095 17.163-38.186 38.339-38.06 21.172.133 38.535 17.223 38.536 38.06z"/><path fill="url(#SVGID_13_)" d="m294.06 402.989c-.132 21.173-17.223 38.535-38.06 38.536-20.837-.001-37.927-17.364-38.06-38.536-.127-21.176 16.964-38.334 38.06-38.339 21.095.005 38.186 17.163 38.06 38.339z"/><path fill="url(#SVGID_14_)" d="m263.595 418.458c-20.908.024-38.022-17.293-38.13-38.461-4.769 6.405-7.57 14.363-7.525 22.991.132 21.173 17.223 38.535 38.06 38.536 20.837-.001 37.927-17.364 38.06-38.536-7.001 9.349-18.058 15.457-30.465 15.47z"/><path fill="url(#SVGID_15_)" d="m294.06 402.989c-.132 21.173-17.223 38.535-38.06 38.536-20.837-.001-37.927-17.364-38.06-38.536-.127-21.176 16.964-38.334 38.06-38.339 21.095.005 38.186 17.163 38.06 38.339z"/></g></svg>