<svg height="496pt" viewBox="0 0 496 496" width="496pt" xmlns="http://www.w3.org/2000/svg" xmlns:xlink="http://www.w3.org/1999/xlink"><linearGradient id="a"><stop offset="0" stop-color="#003f8a"/><stop offset=".518" stop-color="#00d7df"/><stop offset="1" stop-color="#006df0"/></linearGradient><linearGradient id="b" gradientUnits="userSpaceOnUse" x1="-16.616" x2="498.256" xlink:href="#a" y1="512.616" y2="-2.256"/><linearGradient id="c" gradientUnits="userSpaceOnUse" x1="-18.616" x2="496.256" xlink:href="#a" y1="510.616" y2="-4.256"/><linearGradient id="d" gradientUnits="userSpaceOnUse" x1="141.384" x2="656.256" xlink:href="#a" y1="670.616" y2="155.744"/><linearGradient id="e" gradientUnits="userSpaceOnUse" x1="169.384" x2="684.256" xlink:href="#a" y1="698.616" y2="183.744"/><path d="m488 48c4.417969 0 8-3.582031 8-8v-32c0-4.417969-3.582031-8-8-8h-32c-4.417969 0-8 3.582031-8 8v8h-176v-8c0-4.417969-3.582031-8-8-8h-32c-4.417969 0-8 3.582031-8 8v8h-176v-8c0-4.417969-3.582031-8-8-8h-32c-4.417969 0-8 3.582031-8 8v32c0 4.417969 3.582031 8 8 8h8v176h-8c-4.417969 0-8 3.582031-8 8v32c0 4.417969 3.582031 8 8 8h8v176h-8c-4.417969 0-8 3.582031-8 8v32c0 4.417969 3.582031 8 8 8h32c4.417969 0 8-3.582031 8-8v-8h176v8c0 4.417969 3.582031 8 8 8h32c4.417969 0 8-3.582031 8-8v-8h176v8c0 4.417969 3.582031 8 8 8h32c4.417969 0 8-3.582031 8-8v-32c0-4.417969-3.582031-8-8-8h-8v-176h8c4.417969 0 8-3.582031 8-8v-32c0-4.417969-3.582031-8-8-8h-8v-176zm-24-32h16v16h-16zm-224 0h16v16h-16zm-224 0h16v16h-16zm0 224h16v16h-16zm16 240h-16v-16h16zm224 0h-16v-16h16zm224 0h-16v-16h16zm0-224h-16v-16h16zm-16-32h-8c-4.417969 0-8 3.582031-8 8v32c0 4.417969 3.582031 8 8 8h8v176h-8c-4.417969 0-8 3.582031-8 8v8h-176v-8c0-4.417969-3.582031-8-8-8h-32c-4.417969 0-8 3.582031-8 8v8h-176v-8c0-4.417969-3.582031-8-8-8h-8v-176h8c4.417969 0 8-3.582031 8-8v-32c0-4.417969-3.582031-8-8-8h-8v-176h8c4.417969 0 8-3.582031 8-8v-8h176v8c0 4.417969 3.582031 8 8 8h32c4.417969 0 8-3.582031 8-8v-8h176v8c0 4.417969 3.582031 8 8 8h8zm0 0" fill="url(#b)"/><path d="m411.0625 88.609375c-2.988281-1.238281-6.429688-.554687-8.71875 1.734375l-84.230469 84.230469c-18.050781-19.566407-43.488281-30.660157-70.113281-30.574219-52.996094.058594-95.941406 43.003906-96 96 0 2.6875.144531 5.351562.359375 8h-72.359375c-4.417969 0-8 3.582031-8 8v144c0 4.417969 3.582031 8 8 8h144c4.417969 0 8-3.582031 8-8v-65.375c26.480469 4.539062 53.652344-2.257812 74.875-18.734375 21.226562-16.472656 34.546875-41.109375 36.71875-67.890625h64.40625c4.417969 0 8-3.582031 8-8v-144c0-3.234375-1.949219-6.152344-4.9375-7.390625zm-195.0625 303.390625h-128v-128h128zm32-72c-5.382812-.046875-10.742188-.652344-16-1.800781v-62.199219c0-4.417969-3.582031-8-8-8h-55.59375c-.253906-2.632812-.40625-5.304688-.40625-8 .046875-44.164062 35.835938-79.953125 80-80 44.160156.054688 79.945312 35.839844 80 80-.046875 44.164062-35.835938 79.953125-80 80zm152-88h-56.320312c-1.273438-16.015625-6.628907-31.4375-15.550782-44.800781l71.871094-71.886719zm0 0" fill="url(#c)"/><path d="m408 424h-56c-4.417969 0-8 3.582031-8 8s3.582031 8 8 8h56c4.417969 0 8-3.582031 8-8s-3.582031-8-8-8zm0 0" fill="url(#d)"/><path d="m440 424h-8c-4.417969 0-8 3.582031-8 8s3.582031 8 8 8h8c4.417969 0 8-3.582031 8-8s-3.582031-8-8-8zm0 0" fill="url(#e)"/></svg>