<svg id="Layer_1" height="512" viewBox="0 0 512 512" width="512" xmlns="http://www.w3.org/2000/svg" xmlns:xlink="http://www.w3.org/1999/xlink" data-name="Layer 1"><linearGradient id="linear-gradient" gradientUnits="userSpaceOnUse" x1="256" x2="256" y1="446.81" y2="55.596"><stop offset=".322" stop-color="#a163f5"/><stop offset=".466" stop-color="#b074ee"/><stop offset=".752" stop-color="#d8a1dd"/><stop offset=".898" stop-color="#efbad3"/></linearGradient><path d="m480.089 154.082h-187.135a6 6 0 0 0 -6 6v45.918l-84.461-144.182a6 6 0 0 0 -10.353 0l-165.406 282.366a6 6 0 0 0 5.177 9.033h144.635a122.964 122.964 0 0 0 241.575 0h61.968a6 6 0 0 0 6-6v-187.135a6 6 0 0 0 -6-6zm-437.709 187.135 154.936-264.495 77.649 132.553a123.159 123.159 0 0 0 -100.591 120.914c0 3.717.175 7.394.5 11.028zm254.954 99.932a110.96 110.96 0 1 1 110.959-110.96 111.085 111.085 0 0 1 -110.959 110.96zm176.755-99.932h-54.3c.325-3.634.5-7.311.5-11.028a123.1 123.1 0 0 0 -121.335-122.939v-41.168h175.135z" fill="url(#linear-gradient)"/></svg>