<svg xmlns="http://www.w3.org/2000/svg" xmlns:xlink="http://www.w3.org/1999/xlink" id="Capa_1" width="512" height="512" enable-background="new 0 0 512 512" viewBox="0 0 512 512"><linearGradient id="SVGID_1_" x1="256" x2="256" y1="482" y2="30" gradientUnits="userSpaceOnUse"><stop offset="0" stop-color="#c3ffe8"/><stop offset=".997" stop-color="#f0fff4"/></linearGradient><linearGradient id="SVGID_2_" x1="256" x2="256" y1="512" y2="0" gradientUnits="userSpaceOnUse"><stop offset="0" stop-color="#00b59c"/><stop offset="1" stop-color="#9cffac"/></linearGradient><g><g><g><path fill="url(#SVGID_1_)" d="m226 30h-151c-8.291 0-15 6.709-15 15s6.709 15 15 15h151c8.291 0 15-6.709 15-15s-6.709-15-15-15zm60 30h151c8.291 0 15-6.709 15-15s-6.709-15-15-15h-151c-8.291 0-15 6.709-15 15s6.709 15 15 15zm181 0c-8.291 0-15 6.709-15 15v151c0 8.291 6.709 15 15 15s15-6.709 15-15v-151c0-8.291-6.709-15-15-15zm0 211c-8.291 0-15 6.709-15 15v151c0 8.291 6.709 15 15 15s15-6.709 15-15v-151c0-8.291-6.709-15-15-15zm-30 181h-151c-8.291 0-15 6.709-15 15s6.709 15 15 15h151c8.291 0 15-6.709 15-15s-6.709-15-15-15zm-211 0h-151c-8.291 0-15 6.709-15 15s6.709 15 15 15h151c8.291 0 15-6.709 15-15s-6.709-15-15-15zm-166-166c0-8.291-6.709-15-15-15s-15 6.709-15 15v151c0 8.291 6.709 15 15 15s15-6.709 15-15zm-15-45c8.291 0 15-6.709 15-15v-151c0-8.291-6.709-15-15-15s-15 6.709-15 15v151c0 8.291 6.709 15 15 15z"/></g></g><g><g><path fill="url(#SVGID_2_)" d="m286 241h-15v-15c0-8.291-6.709-15-15-15s-15 6.709-15 15v15h-15c-8.291 0-15 6.709-15 15s6.709 15 15 15h15v15c0 8.291 6.709 15 15 15s15-6.709 15-15v-15h15c8.291 0 15-6.709 15-15s-6.709-15-15-15zm-211-241h-60c-8.291 0-15 6.709-15 15v60c0 8.291 6.709 15 15 15h60c8.291 0 15-6.709 15-15v-60c0-8.291-6.709-15-15-15zm0 211h-60c-8.291 0-15 6.709-15 15v60c0 8.291 6.709 15 15 15h60c8.291 0 15-6.709 15-15v-60c0-8.291-6.709-15-15-15zm0 211h-60c-8.291 0-15 6.709-15 15v60c0 8.291 6.709 15 15 15h60c8.291 0 15-6.709 15-15v-60c0-8.291-6.709-15-15-15zm211-422h-60c-8.291 0-15 6.709-15 15v60c0 8.291 6.709 15 15 15h60c8.291 0 15-6.709 15-15v-60c0-8.291-6.709-15-15-15zm0 422h-60c-8.291 0-15 6.709-15 15v60c0 8.291 6.709 15 15 15h60c8.291 0 15-6.709 15-15v-60c0-8.291-6.709-15-15-15zm211-422h-60c-8.291 0-15 6.709-15 15v60c0 8.291 6.709 15 15 15h60c8.291 0 15-6.709 15-15v-60c0-8.291-6.709-15-15-15zm0 211h-60c-8.291 0-15 6.709-15 15v60c0 8.291 6.709 15 15 15h60c8.291 0 15-6.709 15-15v-60c0-8.291-6.709-15-15-15zm0 211h-60c-8.291 0-15 6.709-15 15v60c0 8.291 6.709 15 15 15h60c8.291 0 15-6.709 15-15v-60c0-8.291-6.709-15-15-15z"/></g></g></g></svg>