<svg height="512" viewBox="0 0 128 128" width="512" xmlns="http://www.w3.org/2000/svg" xmlns:xlink="http://www.w3.org/1999/xlink"><linearGradient id="a" gradientUnits="userSpaceOnUse" x1="109.244" x2="18.777" y1="109.307" y2="18.839"><stop offset="0" stop-color="#d7245a"/><stop offset="1" stop-color="#4aceef"/></linearGradient><path d="m27.482 56.943 2.277 2.957a1.75 1.75 0 1 1 -2.774 2.135l-2.276-2.958a1.75 1.75 0 0 1 2.773-2.135zm84.018-9.779a1.75 1.75 0 0 0 -1.169-1.138l-28.243-8.326-16.645-24.284a1.749 1.749 0 0 0 -2.886 0l-16.645 24.284-28.24 8.324a1.751 1.751 0 0 0 -.892 2.746l2.463 3.2a1.75 1.75 0 0 0 2.774-2.134l-.907-1.178 26.39-7.775a1.749 1.749 0 0 0 .948-.69l15.552-22.693 15.553 22.693a1.749 1.749 0 0 0 .948.69l26.388 7.779-16.776 21.8a1.741 1.741 0 0 0 -.362 1.115l.756 27.5-25.921-9.214a1.759 1.759 0 0 0 -1.172 0l-25.921 9.218.756-27.5a1.741 1.741 0 0 0 -.362-1.115l-2.662-3.46a1.75 1.75 0 1 0 -2.774 2.135l2.282 2.966-.808 29.432a1.75 1.75 0 0 0 2.335 1.7l27.74-9.869 27.74 9.864a1.75 1.75 0 0 0 2.335-1.7l-.808-29.432 17.953-23.33a1.748 1.748 0 0 0 .28-1.608zm-18.548 7.544-10.646 13.837.479 17.455a1.75 1.75 0 0 1 -2.335 1.7l-16.45-5.854-16.45 5.854a1.75 1.75 0 0 1 -2.335-1.7l.479-17.453-10.646-13.839a1.751 1.751 0 0 1 .891-2.746l16.747-4.937 9.871-14.4a1.814 1.814 0 0 1 2.886 0l9.871 14.4 16.747 4.937a1.751 1.751 0 0 1 .891 2.746zm-4.331-.108-14.893-4.39a1.755 1.755 0 0 1 -.949-.69l-8.779-12.812-8.779 12.809a1.755 1.755 0 0 1 -.949.69l-14.893 4.393 9.469 12.3a1.742 1.742 0 0 1 .362 1.116l-.427 15.522 14.631-5.2a1.75 1.75 0 0 1 1.172 0l14.631 5.2-.427-15.518a1.742 1.742 0 0 1 .362-1.116zm20.239-36.162a1.75 1.75 0 0 0 -2.453 2.5 60.358 60.358 0 1 1 -11.973-9.15 1.75 1.75 0 0 0 1.766-3.028 64.083 64.083 0 1 0 12.663 9.678z" fill="url(#a)"/></svg>