<svg id="Capa_1" enable-background="new 0 0 512 512" height="512" viewBox="0 0 512 512" width="512" xmlns="http://www.w3.org/2000/svg" xmlns:xlink="http://www.w3.org/1999/xlink"><linearGradient id="lg1"><stop offset="0" stop-color="#ff4d5f"/><stop offset="1" stop-color="#fffa78"/></linearGradient><linearGradient id="SVGID_1_" gradientUnits="userSpaceOnUse" x1="74.981" x2="437.02" xlink:href="#lg1" y1="437.019" y2="74.98"/><radialGradient id="SVGID_2_" cx="256.001" cy="256" gradientUnits="userSpaceOnUse" r="256"><stop offset="0" stop-color="#ff4c4c" stop-opacity=".6"/><stop offset=".139" stop-color="#ff5e51" stop-opacity=".517"/><stop offset=".415" stop-color="#ff8a5c" stop-opacity=".351"/><stop offset=".7983" stop-color="#ffd26e" stop-opacity=".121"/><stop offset="1" stop-color="#fffa78" stop-opacity="0"/></radialGradient><linearGradient id="lg2"><stop offset="0" stop-color="#fff200"/><stop offset="1" stop-color="#fff"/></linearGradient><linearGradient id="SVGID_3_" gradientUnits="userSpaceOnUse" x1="105.811" x2="465.615" xlink:href="#lg2" y1="604.123" y2="244.319"/><linearGradient id="SVGID_4_" gradientUnits="userSpaceOnUse" x1="91.389" x2="324.793" y1="595.413" y2="362.009"><stop offset="0" stop-color="#ffcb00"/><stop offset="1" stop-color="#fffda7"/></linearGradient><linearGradient id="SVGID_5_" gradientUnits="userSpaceOnUse" x1="-408.564" x2="508.109" xlink:href="#lg2" y1="905.238" y2="-11.435"/><linearGradient id="SVGID_6_" gradientUnits="userSpaceOnUse" x1="139.59" x2="333.429" xlink:href="#lg1" y1="372.41" y2="178.57"/><linearGradient id="SVGID_7_" gradientUnits="userSpaceOnUse" x1="166.482" x2="329.718" xlink:href="#lg1" y1="345.653" y2="182.417"/><radialGradient id="SVGID_8_" cx="256" cy="256" gradientUnits="userSpaceOnUse" r="82.745"><stop offset="0" stop-color="#fffa78" stop-opacity="0"/><stop offset=".1548" stop-color="#fff677" stop-opacity=".093"/><stop offset=".3069" stop-color="#ffea74" stop-opacity=".184"/><stop offset=".4579" stop-color="#ffd76f" stop-opacity=".275"/><stop offset=".6084" stop-color="#ffbb68" stop-opacity=".365"/><stop offset=".7584" stop-color="#ff975f" stop-opacity=".455"/><stop offset=".906" stop-color="#ff6c54" stop-opacity=".544"/><stop offset="1" stop-color="#ff4c4c" stop-opacity=".6"/></radialGradient><g><circle cx="256" cy="256" fill="url(#SVGID_1_)" r="256"/><circle cx="256" cy="256" fill="url(#SVGID_2_)" r="256"/><path d="m464.537 233.394c-10.247-.045-20.495-.086-30.743-.125.057 15.154.057 30.309 0 45.462 10.247-.039 20.495-.08 30.743-.125 12.733-.066 23.113-10.192 23.113-22.606 0-12.415-10.382-22.541-23.113-22.606z" fill="url(#SVGID_3_)"/><path d="m233.119 387.68c.071 25.619.162 51.238.274 76.856.067 12.731 10.192 23.113 22.606 23.113 12.415.001 22.54-10.381 22.606-23.113.112-25.619.203-51.238.274-76.856-15.252.043-30.506.043-45.76 0z" fill="url(#SVGID_4_)"/><path d="m456.9 256c.001-12.494-10.373-22.675-23.105-22.731-21.609-.08-43.219-.146-64.828-.198-9.333-44.821-45.215-80.708-90.038-90.038-.075-31.857-.183-63.714-.322-95.57-.067-12.732-10.193-23.115-22.607-23.113-12.415 0-22.539 10.38-22.606 23.113-.139 31.857-.247 63.714-.322 95.57-44.822 9.332-80.706 45.217-90.038 90.038-31.857.075-63.714.183-95.57.323-12.732.066-23.114 10.191-23.114 22.606 0 12.413 10.381 22.539 23.113 22.606 31.857.14 63.714.247 95.57.323 9.333 44.821 45.215 80.705 90.038 90.038.015 6.238.031 12.476.048 18.714.041 12.732 10.291 23.095 22.881 23.094 12.59.001 22.839-10.362 22.881-23.094.017-6.238.033-12.476.048-18.714 44.822-9.33 80.707-45.216 90.038-90.038 21.609-.051 43.219-.117 64.828-.198 12.732-.056 23.104-10.238 23.105-22.731z" fill="url(#SVGID_5_)"/><path d="m256 325.188c-38.033-.017-69.17-31.157-69.187-69.188.018-38.032 31.156-69.171 69.187-69.188 38.031.018 69.17 31.156 69.188 69.188-.018 38.031-31.157 69.171-69.188 69.188z" fill="url(#SVGID_6_)"/><path d="m271.365 294.433c-38.103.01-69.208-31.072-69.154-69.143.008-4.968.556-9.81 1.567-14.485-10.541 12.153-16.966 27.942-16.965 45.194.018 38.031 31.156 69.171 69.187 69.188 33.08-.006 60.914-23.582 67.64-54.717-12.711 14.628-31.434 23.952-52.275 23.963z" fill="url(#SVGID_7_)"/><path d="m256 325.188c-38.033-.017-69.17-31.157-69.187-69.188.018-38.032 31.156-69.171 69.187-69.188 38.031.018 69.17 31.156 69.188 69.188-.018 38.031-31.157 69.171-69.188 69.188z" fill="url(#SVGID_8_)"/></g></svg>