<svg xmlns="http://www.w3.org/2000/svg" xmlns:xlink="http://www.w3.org/1999/xlink" id="Capa_1" width="512" height="512" enable-background="new 0 0 512 512" viewBox="0 0 512 512"><linearGradient id="lg1"><stop offset="0" stop-color="#560dff"/><stop offset="1" stop-color="#73ecff"/></linearGradient><linearGradient id="SVGID_1_" x1="74.981" x2="437.02" y1="437.019" y2="74.98" gradientUnits="userSpaceOnUse" xlink:href="#lg1"/><radialGradient id="SVGID_2_" cx="256.001" cy="256" r="256" gradientUnits="userSpaceOnUse"><stop offset="0" stop-color="#364aff"/><stop offset=".11" stop-color="#3951fe" stop-opacity=".89"/><stop offset=".274" stop-color="#4266fa" stop-opacity=".726"/><stop offset=".472" stop-color="#5187f5" stop-opacity=".528"/><stop offset=".696" stop-color="#65b5ed" stop-opacity=".304"/><stop offset=".94" stop-color="#7eefe3" stop-opacity=".06"/><stop offset="1" stop-color="#85ffe0" stop-opacity="0"/></radialGradient><linearGradient id="SVGID_3_" x1="72.012" x2="371.005" y1="439.988" y2="140.996" gradientUnits="userSpaceOnUse" xlink:href="#lg1"/><linearGradient id="SVGID_4_" x1="120.819" x2="381.992" y1="396.092" y2="134.92" gradientUnits="userSpaceOnUse" xlink:href="#lg1"/><radialGradient id="SVGID_5_" cx="256" cy="256" r="189.469" gradientUnits="userSpaceOnUse"><stop offset="0" stop-color="#85ffe0" stop-opacity="0"/><stop offset=".136" stop-color="#83fbe1" stop-opacity=".136"/><stop offset=".285" stop-color="#7dede3" stop-opacity=".285"/><stop offset=".441" stop-color="#74d7e7" stop-opacity=".441"/><stop offset=".601" stop-color="#66b9ec" stop-opacity=".601"/><stop offset=".764" stop-color="#5591f3" stop-opacity=".764"/><stop offset=".928" stop-color="#4062fb" stop-opacity=".928"/><stop offset="1" stop-color="#364aff"/></radialGradient><linearGradient id="lg2"><stop offset="0" stop-color="#364aff"/><stop offset=".03" stop-color="#3c57fd" stop-opacity=".97"/><stop offset=".148" stop-color="#4f83f5" stop-opacity=".852"/><stop offset=".27" stop-color="#60a9ef" stop-opacity=".73"/><stop offset=".396" stop-color="#6dc8e9" stop-opacity=".604"/><stop offset=".527" stop-color="#78e1e5" stop-opacity=".473"/><stop offset=".666" stop-color="#7ff2e2" stop-opacity=".334"/><stop offset=".816" stop-color="#84fce1" stop-opacity=".184"/><stop offset="1" stop-color="#85ffe0" stop-opacity="0"/></linearGradient><linearGradient id="SVGID_6_" x1="256" x2="256" y1="260.356" y2="32.09" gradientUnits="userSpaceOnUse" xlink:href="#lg2"/><linearGradient id="SVGID_7_" x1="256" x2="256" y1="86.856" y2="-141.411" gradientTransform="matrix(1 0 0 -1 0 338.5)" gradientUnits="userSpaceOnUse" xlink:href="#lg2"/><linearGradient id="SVGID_8_" x1="-32.27" x2="426.373" y1="544.27" y2="85.628" gradientUnits="userSpaceOnUse"><stop offset="0" stop-color="#85ffe0"/><stop offset=".144" stop-color="#8cffe2"/><stop offset=".36" stop-color="#a1ffe7"/><stop offset=".619" stop-color="#c2ffef"/><stop offset=".91" stop-color="#effffb"/><stop offset="1" stop-color="#fff"/></linearGradient><g><circle cx="256" cy="256" r="256" fill="url(#SVGID_1_)"/><circle cx="256" cy="256" r="256" fill="url(#SVGID_2_)"/><circle cx="256" cy="256" r="154.775" fill="url(#SVGID_3_)"/><path fill="url(#SVGID_4_)" d="m271.265 364.635c-84.349-.048-155.029-70.347-154.486-154.218.067-8.472.862-16.787 2.302-24.907-11.352 21.246-17.86 45.168-17.856 70.49.255 83.58 71.195 154.52 154.775 154.775 75.273-.113 140.007-57.826 152.658-129.952-26.163 48.901-78.306 83.68-137.393 83.812z"/><circle cx="256" cy="256" r="154.775" fill="url(#SVGID_5_)"/><path fill="url(#SVGID_6_)" d="m256 101.225c75.986.123 141.268 58.922 153.006 132.039-102.004-.435-204.008-.435-306.012 0 11.739-73.116 77.02-131.915 153.006-132.039z"/><path fill="url(#SVGID_7_)" d="m102.994 278.736c102.004.435 204.008.435 306.012 0-11.74 73.116-77.02 131.916-153.006 132.039-75.986-.123-141.267-58.922-153.006-132.039z"/><path fill="url(#SVGID_8_)" d="m256 55.1c-106.921.559-200.342 93.979-200.9 200.9.558 106.921 93.979 200.342 200.9 200.9 106.921-.559 200.341-93.979 200.9-200.9-.559-106.92-93.979-200.341-200.9-200.9zm0 46.125c75.986.123 141.268 58.922 153.006 132.039-102.004-.435-204.008-.435-306.012 0 11.739-73.116 77.02-131.915 153.006-132.039zm0 309.55c-75.986-.123-141.267-58.922-153.006-132.039 102.004.435 204.008.435 306.012 0-11.739 73.116-77.02 131.916-153.006 132.039z"/></g></svg>