<svg height="496pt" viewBox="0 0 496 496" width="496pt" xmlns="http://www.w3.org/2000/svg" xmlns:xlink="http://www.w3.org/1999/xlink"><linearGradient id="a"><stop offset="0" stop-color="#003f8a"/><stop offset=".518" stop-color="#00d7df"/><stop offset="1" stop-color="#006df0"/></linearGradient><linearGradient id="b" gradientUnits="userSpaceOnUse" x1="-64.648" x2="467.616" xlink:href="#a" y1="516.256" y2="-16.016"/><linearGradient id="c" gradientUnits="userSpaceOnUse" x1="87.552" x2="619.824" xlink:href="#a" y1="668.456" y2="136.192"/><linearGradient id="d" gradientUnits="userSpaceOnUse" x1="65.544" x2="597.816" xlink:href="#a" y1="646.448" y2="114.184"/><linearGradient id="e" gradientUnits="userSpaceOnUse" x1="-108.448" x2="423.816" xlink:href="#a" y1="472.448" y2="-59.816"/><linearGradient id="f" gradientUnits="userSpaceOnUse" x1="-172.448" x2="359.816" xlink:href="#a" y1="408.448" y2="-123.816"/><linearGradient id="g" gradientUnits="userSpaceOnUse" x1="-150.448" x2="381.816" xlink:href="#a" y1="430.448" y2="-101.816"/><linearGradient id="h" gradientUnits="userSpaceOnUse" x1="-194.448" x2="337.816" xlink:href="#a" y1="386.448" y2="-145.816"/><linearGradient id="i" gradientUnits="userSpaceOnUse" x1="21.552" x2="553.816" xlink:href="#a" y1="602.448" y2="70.184"/><linearGradient id="j" gradientUnits="userSpaceOnUse" x1="153.552" x2="685.816" xlink:href="#a" y1="734.448" y2="202.184"/><linearGradient id="k" gradientUnits="userSpaceOnUse" x1="-22.448" x2="509.816" xlink:href="#a" y1="558.448" y2="26.184"/><path d="m283.921875 62.585938 135.511719 80.300781c2.460937 1.519531 5.546875 1.589843 8.074218.1875 2.53125-1.398438 4.105469-4.058594 4.125-6.949219.015626-2.890625-1.527343-5.566406-4.039062-6.996094l-135.523438-80.328125c-3.804687-2.25-8.714843-.992187-10.964843 2.816407-2.253907 3.804687-.992188 8.714843 2.816406 10.96875zm0 0" fill="url(#b)"/><path d="m458.726562 200.0625c-4.375-.546875-8.378906 2.527344-8.972656 6.898438l-27.371094 208c-.574218 4.378906 2.507813 8.398437 6.890626 8.976562.347656.039062.703124.0625 1.054687.0625 4.011719-.007812 7.398437-2.980469 7.917969-6.960938l27.371094-208c.574218-4.378906-2.507813-8.398437-6.890626-8.976562zm0 0" fill="url(#c)"/><path d="m376 456h-256c-4.417969 0-8 3.582031-8 8s3.582031 8 8 8h256c4.417969 0 8-3.582031 8-8s-3.582031-8-8-8zm0 0" fill="url(#d)"/><path d="m65.671875 424c.351563 0 .707031-.023438 1.054687-.0625 4.375-.585938 7.449219-4.601562 6.875-8.976562l-27.371093-208c-.355469-2.847657-2.210938-5.28125-4.859375-6.386719-2.644532-1.105469-5.679688-.707031-7.953125 1.042969-2.273438 1.75-3.4375 4.582031-3.050781 7.421874l27.367187 208c.523437 3.984376 3.917969 6.960938 7.9375 6.960938zm0 0" fill="url(#e)"/><path d="m72.503906 144c1.433594.003906 2.839844-.386719 4.070313-1.121094l135-80c2.546875-1.410156 4.125-4.097656 4.121093-7.007812-.003906-2.914063-1.59375-5.59375-4.144531-6.996094s-5.664062-1.308594-8.125.246094l-135 80c-3.101562 1.835937-4.585937 5.519531-3.632812 8.996094.949219 3.472656 4.109375 5.882812 7.710937 5.882812zm0 0" fill="url(#f)"/><path d="m248 64c17.671875 0 32-14.328125 32-32s-14.328125-32-32-32-32 14.328125-32 32 14.328125 32 32 32zm0-48c8.835938 0 16 7.164062 16 16s-7.164062 16-16 16-16-7.164062-16-16 7.164062-16 16-16zm0 0" fill="url(#g)"/><path d="m64 160c0-17.671875-14.328125-32-32-32s-32 14.328125-32 32 14.328125 32 32 32 32-14.328125 32-32zm-48 0c0-8.835938 7.164062-16 16-16s16 7.164062 16 16-7.164062 16-16 16-16-7.164062-16-16zm0 0" fill="url(#h)"/><path d="m464 128c-17.671875 0-32 14.328125-32 32s14.328125 32 32 32 32-14.328125 32-32-14.328125-32-32-32zm0 48c-8.835938 0-16-7.164062-16-16s7.164062-16 16-16 16 7.164062 16 16-7.164062 16-16 16zm0 0" fill="url(#i)"/><path d="m424 432c-17.671875 0-32 14.328125-32 32s14.328125 32 32 32 32-14.328125 32-32-14.328125-32-32-32zm0 48c-8.835938 0-16-7.164062-16-16s7.164062-16 16-16 16 7.164062 16 16-7.164062 16-16 16zm0 0" fill="url(#j)"/><path d="m72 432c-17.671875 0-32 14.328125-32 32s14.328125 32 32 32 32-14.328125 32-32-14.328125-32-32-32zm0 48c-8.835938 0-16-7.164062-16-16s7.164062-16 16-16 16 7.164062 16 16-7.164062 16-16 16zm0 0" fill="url(#k)"/></svg>