<svg xmlns="http://www.w3.org/2000/svg" xmlns:xlink="http://www.w3.org/1999/xlink" width="572" height="572" viewBox="0 0 429.961 429"><linearGradient id="a"><stop offset=".322" stop-color="#a163f5"/><stop offset=".466" stop-color="#b074ee"/><stop offset=".752" stop-color="#d8a1dd"/><stop offset=".898" stop-color="#efbad3"/></linearGradient><linearGradient id="b" x1="253.1" x2="253.1" y1="17.518" y2="570.222" gradientTransform="matrix(1 0 0 -1 -40.999333 473.481185)" gradientUnits="userSpaceOnUse" xlink:href="#a"/><linearGradient id="c" x1="256" x2="256" y1="17.518" y2="570.222" gradientTransform="matrix(1 0 0 -1 -40.999333 473.481185)" gradientUnits="userSpaceOnUse" xlink:href="#a"/><path fill="url(#b)" d="m320.300781 205.480469h-216.398437c-5.523438 0-10 4.476562-10 10 0 5.523437 4.476562 10 10 10h216.398437c5.523438 0 10-4.476563 10-10 0-5.523438-4.476562-10-10-10zm0 0"/><path fill="url(#c)" d="m215 .480469c-86.960938-.015625-165.363281 52.363281-198.640625 132.707031-33.273437 80.34375-14.867187 172.820312 46.640625 234.292969 83.949219 83.949219 220.054688 83.949219 304 0 83.949219-83.945313 83.949219-220.050781 0-304-40.222656-40.453125-94.953125-63.136719-152-63zm0 410c-107.5 0-195-87.5-195-195s87.5-195 195-195 195 87.5 195 195-87.5 195-195 195zm0 0"/></svg>