<svg height="418pt" viewBox="-1 0 418 418.6406" width="418pt" xmlns="http://www.w3.org/2000/svg" xmlns:xlink="http://www.w3.org/1999/xlink"><linearGradient id="a" gradientTransform="matrix(1 0 0 -1 -47.575945 467.9)" gradientUnits="userSpaceOnUse" x1="256.05" x2="256.05" y1="35" y2="480.405"><stop offset=".322" stop-color="#a163f5"/><stop offset=".466" stop-color="#b074ee"/><stop offset=".752" stop-color="#d8a1dd"/><stop offset=".898" stop-color="#efbad3"/></linearGradient><path d="m348.425781 136.601562c37.71875 0 68.296875-30.582031 68.296875-68.300781 0-37.722656-30.578125-68.300781-68.296875-68.300781-37.722656 0-68.300781 30.578125-68.300781 68.300781-.003906 1.96875.097656 3.9375.300781 5.898438l-161.5 89.699219c-18.871093-20.628907-48.414062-27.664063-74.554687-17.753907-26.140625 9.910157-43.59375 34.765625-44.042969 62.71875-.445313 27.953125 16.203125 53.355469 42.011719 64.097657 25.8125 10.742187 55.566406 4.65625 75.085937-15.359376l162.898438 96.097657c1.421875 35.238281 29.671875 63.476562 64.910156 64.886719 35.238281 1.410156 65.652344-24.480469 69.886719-59.492188s-19.132813-67.40625-53.691406-74.4375c-34.558594-7.03125-68.722657 13.660156-78.503907 47.542969l-153.902343-90.800781c9.902343-18.972657 10.273437-41.507813 1-60.796876l155.199218-86.203124c10.652344 25.507812 35.558594 42.140624 63.203125 42.203124zm0-116.703124c26.671875 0 48.296875 21.625 48.296875 48.300781s-21.625 48.300781-48.296875 48.300781c-26.675781 0-48.300781-21.625-48.300781-48.300781.015625-26.667969 21.632812-48.28125 48.300781-48.300781zm-280 238.300781c-26.675781 0-48.300781-21.625-48.300781-48.300781 0-26.671876 21.625-48.296876 48.300781-48.296876 26.671875 0 48.296875 21.625 48.296875 48.296876-.015625 26.667968-21.628906 48.285156-48.296875 48.300781zm280 45c26.671875 0 48.296875 21.625 48.296875 48.300781s-21.625 48.300781-48.296875 48.300781c-26.675781 0-48.300781-21.625-48.300781-48.300781.015625-26.667969 21.632812-48.28125 48.300781-48.300781zm0 0" fill="url(#a)"/></svg>