<svg height="512" viewBox="0 0 512 512" width="512" xmlns="http://www.w3.org/2000/svg" xmlns:xlink="http://www.w3.org/1999/xlink"><linearGradient id="linear-gradient" gradientUnits="userSpaceOnUse" x1="14.706" x2="530.092" y1="497.294" y2="-18.092"><stop offset="0" stop-color="#003f8a"/><stop offset=".518" stop-color="#00d7df"/><stop offset="1" stop-color="#006df0"/></linearGradient><linearGradient id="linear-gradient-2" x1="-123.294" x2="392.092" xlink:href="#linear-gradient" y1="359.294" y2="-156.092"/><linearGradient id="linear-gradient-3" x1="-95.294" x2="420.092" xlink:href="#linear-gradient" y1="387.294" y2="-128.092"/><g id="Bookmark"><path d="m384 8h-256a8 8 0 0 0 -8 8v480a8 8 0 0 0 13.268 6.021l122.732-107.391 122.732 107.391a8 8 0 0 0 13.268-6.021v-480a8 8 0 0 0 -8-8zm-8 470.37-114.732-100.391a8 8 0 0 0 -10.536 0l-114.732 100.391v-454.37h240z" fill="url(#linear-gradient)"/><path d="m160 56h56a8 8 0 0 0 0-16h-56a8 8 0 0 0 0 16z" fill="url(#linear-gradient-2)"/><path d="m240 56h8a8 8 0 0 0 0-16h-8a8 8 0 0 0 0 16z" fill="url(#linear-gradient-3)"/></g></svg>