<svg height="400pt" viewBox="0 0 400 400" width="400pt" xmlns="http://www.w3.org/2000/svg" xmlns:xlink="http://www.w3.org/1999/xlink"><linearGradient id="a"><stop offset=".322" stop-color="#a163f5"/><stop offset=".466" stop-color="#b074ee"/><stop offset=".752" stop-color="#d8a1dd"/><stop offset=".898" stop-color="#efbad3"/></linearGradient><linearGradient id="b" gradientTransform="matrix(1 0 0 -1 -56 458)" gradientUnits="userSpaceOnUse" x1="256" x2="256" xlink:href="#a" y1="3.998" y2="508.995"/><linearGradient id="c" gradientTransform="matrix(1 0 0 -1 -56 458)" gradientUnits="userSpaceOnUse" x1="287.645" x2="287.645" xlink:href="#a" y1="3.998" y2="508.995"/><path d="m390 282.351562h-272.351562v-272.351562c0-5.523438-4.476563-10-10-10-5.523438 0-10 4.476562-10 10v87.648438h-87.648438c-5.523438 0-10 4.476562-10 10 0 5.523437 4.476562 10 10 10h87.648438v174.699218c0 5.523438 4.476562 10 10 10h174.699218v87.652344c0 5.523438 4.476563 10 10 10 5.523438 0 10-4.476562 10-10v-87.648438h87.652344c5.523438 0 10-4.476562 10-10 0-5.523437-4.476562-10-10-10zm0 0" fill="url(#b)"/><path d="m170.9375 117.648438h111.414062v113.5625c0 5.523437 4.476563 10 10 10 5.523438 0 10-4.476563 10-10v-123.5625c0-5.523438-4.476562-10-10-10h-121.414062c-5.523438 0-10 4.476562-10 10 0 5.523437 4.476562 10 10 10zm0 0" fill="url(#c)"/></svg>