<svg height="496.01682pt" viewBox="0 0 496.01682 496.01682" width="496.01682pt" xmlns="http://www.w3.org/2000/svg" xmlns:xlink="http://www.w3.org/1999/xlink"><linearGradient id="a" gradientUnits="userSpaceOnUse" x1="-23.471591" x2="418.752409" y1="519.488409" y2="77.264409"><stop offset="0" stop-color="#003f8a"/><stop offset=".518" stop-color="#00d7df"/><stop offset="1" stop-color="#006df0"/></linearGradient><path d="m472.007812 433.144531v-370.273437c15.097657-3.867188 25.199219-18.070313 23.898438-33.601563-1.304688-15.53125-13.625-27.855469-29.15625-29.15625-15.535156-1.304687-29.738281 8.796875-33.605469 23.894531h-370.273437c-3.867188-15.097656-18.070313-25.199218-33.601563-23.894531-15.53125 1.300781-27.855469 13.625-29.15625 29.15625-1.304687 15.53125 8.796875 29.734375 23.894531 33.601563v370.273437c-15.097656 3.867188-25.199218 18.070313-23.894531 33.605469 1.300781 15.53125 13.625 27.851562 29.15625 29.15625 15.53125 1.300781 29.734375-8.800781 33.601563-23.898438h370.273437c3.867188 15.097657 18.070313 25.199219 33.605469 23.898438 15.53125-1.304688 27.851562-13.625 29.15625-29.15625 1.300781-15.535156-8.800781-29.738281-23.898438-33.605469zm-38.863281 22.863281h-370.273437c-2.925782-11.195312-11.667969-19.9375-22.863282-22.863281v-370.273437c11.195313-2.925782 19.9375-11.667969 22.863282-22.863282h370.273437c2.925781 11.195313 11.667969 19.9375 22.863281 22.863282v370.273437c-11.195312 2.925781-19.9375 11.667969-22.863281 22.863281zm30.863281-440c8.835938 0 16 7.164063 16 16 0 8.835938-7.164062 16-16 16-8.835937 0-16-7.164062-16-16 0-8.835937 7.164063-16 16-16zm-448 16c0-8.835937 7.164063-16 16-16 8.835938 0 16 7.164063 16 16 0 8.835938-7.164062 16-16 16-8.835937 0-16-7.164062-16-16zm16 448c-8.835937 0-16-7.164062-16-16 0-8.835937 7.164063-16 16-16 8.835938 0 16 7.164063 16 16 0 8.835938-7.164062 16-16 16zm432 0c-8.835937 0-16-7.164062-16-16 0-8.835937 7.164063-16 16-16 8.835938 0 16 7.164063 16 16 0 8.835938-7.164062 16-16 16zm0 0" fill="url(#a)"/></svg>