<svg xmlns="http://www.w3.org/2000/svg" xmlns:xlink="http://www.w3.org/1999/xlink" width="512pt" height="512pt" viewBox="0 0 512 512"><linearGradient id="a" x1="0" x2="512" y1="256" y2="256" gradientUnits="userSpaceOnUse"><stop offset="0" stop-color="#00f2fe"/><stop offset=".021" stop-color="#03effe"/><stop offset=".293" stop-color="#24d2fe"/><stop offset=".554" stop-color="#3cbdfe"/><stop offset=".796" stop-color="#4ab0fe"/><stop offset="1" stop-color="#4facfe"/></linearGradient><path fill="url(#a)" d="m178.925781 177.925781c-42.5 42.5-42.5 111.648438 0 154.148438s111.648438 42.5 154.148438 0c7.8125-7.8125 20.476562-7.8125 28.285156 0s7.808594 20.476562 0 28.285156c-29.046875 29.046875-67.203125 43.570313-105.359375 43.570313s-76.3125-14.523438-105.359375-43.570313c-58.09375-58.097656-58.09375-152.625 0-210.71875 58.097656-58.09375 152.625-58.09375 210.71875 0 7.8125 7.808594 7.8125 20.472656 0 28.285156-7.808594 7.808594-20.472656 7.808594-28.285156 0-42.5-42.5-111.648438-42.5-154.148438 0zm258.09375-102.945312c-48.351562-48.351563-112.640625-74.980469-181.019531-74.980469s-132.667969 26.628906-181.019531 74.980469c-48.351563 48.351562-74.980469 112.640625-74.980469 181.019531s26.628906 132.667969 74.980469 181.019531c48.351562 48.351563 112.640625 74.980469 181.019531 74.980469 46.8125 0 92.617188-12.757812 132.460938-36.894531 9.449218-5.722657 12.46875-18.019531 6.746093-27.46875-5.726562-9.449219-18.023437-12.46875-27.46875-6.742188-33.59375 20.347657-72.234375 31.105469-111.738281 31.105469-119.101562 0-216-96.898438-216-216s96.898438-216 216-216 216 96.898438 216 216c0 42.589844-12.664062 84.042969-36.625 119.882812-6.140625 9.183594-3.671875 21.605469 5.507812 27.742188 9.1875 6.140625 21.605469 3.671875 27.742188-5.507812 28.378906-42.441407 43.375-91.585938 43.375-142.117188 0-68.378906-26.628906-132.667969-74.980469-181.019531zm0 0"/></svg>