<svg height="512" viewBox="0 0 512 512" width="512" xmlns="http://www.w3.org/2000/svg" xmlns:xlink="http://www.w3.org/1999/xlink"><linearGradient id="linear-gradient" gradientUnits="userSpaceOnUse" x1="6.118" x2="537.617" y1="505.882" y2="-25.617"><stop offset="0" stop-color="#003f8a"/><stop offset=".518" stop-color="#00d7df"/><stop offset="1" stop-color="#006df0"/></linearGradient><linearGradient id="linear-gradient-2" x1="-85.882" x2="445.617" xlink:href="#linear-gradient" y1="413.882" y2="-117.617"/><linearGradient id="linear-gradient-3" x1="98.118" x2="629.617" xlink:href="#linear-gradient" y1="597.882" y2="66.383"/><g id="More"><path d="m256 192a64 64 0 1 0 64 64 64.072 64.072 0 0 0 -64-64zm0 112a48 48 0 1 1 48-48 48.055 48.055 0 0 1 -48 48z" fill="url(#linear-gradient)"/><path d="m72 192a64 64 0 1 0 64 64 64.072 64.072 0 0 0 -64-64zm0 112a48 48 0 1 1 48-48 48.055 48.055 0 0 1 -48 48z" fill="url(#linear-gradient-2)"/><path d="m440 192a64 64 0 1 0 64 64 64.072 64.072 0 0 0 -64-64zm0 112a48 48 0 1 1 48-48 48.055 48.055 0 0 1 -48 48z" fill="url(#linear-gradient-3)"/></g></svg>