<svg xmlns="http://www.w3.org/2000/svg" xmlns:xlink="http://www.w3.org/1999/xlink" width="656" height="656" viewBox="0 -10 492.01 492"><linearGradient id="a"><stop offset="0" stop-color="#00efd1"/><stop offset="1" stop-color="#00acea"/></linearGradient><linearGradient id="b" x1="210.97" x2="210.97" y1="-7.285" y2="487.483" gradientUnits="userSpaceOnUse" xlink:href="#a"/><linearGradient id="c" x1="327.219" x2="327.219" y1="-7.285" y2="487.483" gradientUnits="userSpaceOnUse" xlink:href="#a"/><linearGradient id="d" x1="223.669" x2="223.669" y1="-7.285" y2="487.483" gradientUnits="userSpaceOnUse" xlink:href="#a"/><linearGradient id="e" x1="275.005" x2="275.005" y1="-7.285" y2="487.483" gradientUnits="userSpaceOnUse" xlink:href="#a"/><linearGradient id="f" x1="348.665" x2="348.665" y1="-7.285" y2="487.483" gradientUnits="userSpaceOnUse" xlink:href="#a"/><linearGradient id="g" x1="246.005" x2="246.005" y1="-7.285" y2="487.483" gradientUnits="userSpaceOnUse" xlink:href="#a"/><path fill="url(#b)" d="m289.550781 182.355469-158.339843 52.207031c-2.636719.867188-4.636719 3.042969-5.277344 5.746094-.644532 2.703125.164062 5.542968 2.125 7.507812l29.695312 29.695313-33.550781 33.808593c-3.101563 3.128907-3.09375 8.179688.023437 11.292969l35.171876 35.171875c3.113281 3.117188 8.164062 3.125 11.292968.023438l33.808594-33.554688 29.695312 29.695313c1.964844 1.964843 4.804688 2.769531 7.507813 2.128906 2.703125-.644531 4.878906-2.640625 5.746094-5.28125l52.207031-158.339844c.945312-2.867187.191406-6.019531-1.941406-8.15625-2.136719-2.132812-5.289063-2.886719-8.160156-1.941406zm-53.230469 151.09375-26.144531-26.144531c-3.113281-3.117188-8.164062-3.125-11.289062-.023438l-33.8125 33.554688-23.898438-23.902344 33.550781-33.808594c3.101563-3.128906 3.09375-8.175781-.023437-11.292969l-26.144531-26.144531 130.929687-43.167969zm0 0"/><path fill="url(#c)" d="m317.699219 172.3125c2.121093 0 4.160156-.84375 5.65625-2.34375l19.039062-19.039062c3.125-3.125 3.125-8.191407 0-11.316407s-8.1875-3.125-11.3125 0l-19.039062 19.039063c-2.289063 2.289062-2.972657 5.730468-1.734375 8.71875 1.238281 2.992187 4.15625 4.941406 7.390625 4.941406zm0 0"/><path fill="url(#c)" d="m323.355469 243.164062c-3.121094-3.125-8.1875-3.125-11.3125 0s-3.125 8.1875 0 11.3125l19.039062 19.042969c3.121094 3.121094 8.1875 3.125 11.3125 0s3.125-8.191406 0-11.316406zm0 0"/><path fill="url(#d)" d="m227.53125 169.96875c3.125 3.121094 8.1875 3.125 11.3125 0s3.125-8.191406.003906-11.316406l-19.042968-19.039063c-3.125-3.125-8.191407-3.125-11.3125 0-3.125 3.125-3.125 8.191407-.003907 11.316407zm0 0"/><path fill="url(#e)" d="m275.003906 154.804688c4.417969 0 8-3.582032 8-8v-26.921876c0-4.417968-3.582031-8-8-8-4.417968 0-8 3.582032-8 8v26.921876c0 4.417968 3.582032 8 8 8zm0 0"/><path fill="url(#f)" d="m362.128906 199.003906h-26.925781c-4.417969 0-8 3.582032-8 8 0 4.417969 3.582031 8 8 8h26.929687c4.417969 0 8-3.582031 8-8 0-4.417968-3.582031-8-8-8zm0 0"/><path fill="url(#g)" d="m484.328125 90.003906c2.09375-.023437 4.089844-.894531 5.535156-2.410156 1.445313-1.515625 2.214844-3.550781 2.140625-5.644531v-73.945313c.074219-2.085937-.699218-4.113281-2.148437-5.621094-1.445313-1.507812-3.4375-2.3632808-5.527344-2.37890575h-77.292969c-4.425781 0-8.015625 3.57812475-8.03125 7.99999975v29h-306v-29c-.011718-4.421875-3.605468-7.99999975-8.027344-7.99999975h-77.296874c-2.085938.01562495-4.082032.87109375-5.527344 2.37890575-1.445313 1.507813-2.2187502 3.535157-2.14843775 5.621094v73.945313c-.07421875 2.09375.69921875 4.128906 2.14453175 5.644531 1.445312 1.515625 3.4375 2.386719 5.53125 2.410156h30.324218v292h-30.324218c-2.09375.027344-4.085938.894532-5.53125 2.410156-1.445313 1.519532-2.2187505 3.550782-2.14453175 5.644532v73.945312c-.07031245 2.089844.70312475 4.117188 2.14843775 5.621094 1.445312 1.507812 3.441406 2.367188 5.527344 2.378906h77.296874c4.421876.003906 8.015626-3.574218 8.027344-8v-29h306v29c.015625 4.425782 3.605469 8.003906 8.03125 8h77.292969c2.089844-.011718 4.082031-.871094 5.527344-2.378906 1.449219-1.503906 2.222656-3.53125 2.148437-5.621094v-73.945312c.074219-2.09375-.695312-4.125-2.140625-5.644532-1.445312-1.515624-3.441406-2.382812-5.535156-2.410156h-30.324219v-292zm-468.324219-16v-58h61v58zm61 382h-61v-58h61zm322-65.945312v28.945312h-306v-28.945312c-.007812-4.433594-3.59375-8.03125-8.027344-8.054688h-30.972656v-292h30.972656c4.433594-.023437 8.019532-3.617187 8.027344-8.054687v-28.945313h306v28.945313c.011719 4.4375 3.597656 8.03125 8.03125 8.054687h30.96875v292h-30.96875c-4.433594.023438-8.019531 3.621094-8.03125 8.054688zm77 7.945312v58h-61v-58zm-61-324v-58h61v58zm0 0"/></svg>