<?xml version="1.0"?>
<svg xmlns="http://www.w3.org/2000/svg" xmlns:xlink="http://www.w3.org/1999/xlink" id="Layer_1" data-name="Layer 1" viewBox="0 0 512 512" width="512" height="512"><defs><linearGradient id="linear-gradient" x1="96.639" y1="24.712" x2="96.639" y2="481.004" gradientUnits="userSpaceOnUse"><stop offset="0" stop-color="#00efd1"/><stop offset="1" stop-color="#00acea"/></linearGradient><linearGradient id="linear-gradient-2" x1="415.361" y1="24.712" x2="415.361" y2="481.004" xlink:href="#linear-gradient"/><linearGradient id="linear-gradient-5" x1="256" y1="24.712" x2="256" y2="481.004" xlink:href="#linear-gradient"/><linearGradient id="linear-gradient-6" x1="239.842" y1="24.712" x2="239.842" y2="481.004" xlink:href="#linear-gradient"/></defs><title>Frame2</title><path d="M53,166.082a8,8,0,0,0,8-8V79h79.278a8,8,0,0,0,0-16H53.043A7.907,7.907,0,0,0,45,70.846v87.236A8,8,0,0,0,53,166.082Z" style="fill:url(#linear-gradient)"/><path d="M458.957,63H371.722a8,8,0,0,0,0,16H451v79.082a8,8,0,0,0,16,0V70.846A7.907,7.907,0,0,0,458.957,63Z" style="fill:url(#linear-gradient-2)"/><path d="M459,345.918a8,8,0,0,0-8,8V433H371.722a8,8,0,0,0,0,16h87.235A7.907,7.907,0,0,0,467,441.154V353.918A8,8,0,0,0,459,345.918Z" style="fill:url(#linear-gradient-2)"/><path d="M140.278,433H61V353.918a8,8,0,0,0-16,0v87.236A7.907,7.907,0,0,0,53.043,449h87.235a8,8,0,1,0,0-16Z" style="fill:url(#linear-gradient)"/><path d="M415,148a8,8,0,0,0-8-8H105a8,8,0,0,0-8,8V364a8,8,0,0,0,8,8H407a8,8,0,0,0,8-8ZM113,309.029l66.709-38.748,60.062,29.231L182.185,356H113ZM205.01,356,317.686,245.226,399,302.961V356ZM399,156V283.354l-77.526-54.987a7.931,7.931,0,0,0-10.183.822l-59.485,58.489L182.78,254.031a7.8,7.8,0,0,0-7.416.271L113,290.532V156Z" style="fill:url(#linear-gradient-5)"/><path d="M239.842,250.417a31.7,31.7,0,1,0-31.7-31.7A31.732,31.732,0,0,0,239.842,250.417Zm0-47.391a15.7,15.7,0,1,1-15.7,15.695A15.713,15.713,0,0,1,239.842,203.026Z" style="fill:url(#linear-gradient-6)"/></svg>
