<svg id="shape-add" enable-background="new 0 0 300 300" height="512" viewBox="0 0 300 300" width="512" xmlns="http://www.w3.org/2000/svg" xmlns:xlink="http://www.w3.org/1999/xlink"><linearGradient id="SVGID_1_" gradientUnits="userSpaceOnUse" x1="37.343" x2="257.961" y1="267.002" y2="46.383"><stop offset="0" stop-color="#107eff"/><stop offset="1" stop-color="#8f16ff"/></linearGradient><g><path d="m216 208c-6.617 0-12 5.383-12 12s5.383 12 12 12 12-5.383 12-12-5.383-12-12-12zm0 16c-2.207 0-4-1.793-4-4s1.793-4 4-4 4 1.793 4 4-1.793 4-4 4zm38.71-38.017c-.005 2.502-2.036 4.526-4.538 4.521-2.501-.005-4.526-2.036-4.521-4.538s2.036-4.526 4.538-4.521 4.526 2.036 4.521 4.538zm-175.194-107.155 2.828-2.828-2.828-2.828c-1.562-1.562-1.562-4.094 0-5.656s4.094-1.562 5.656 0l2.828 2.828 2.828-2.828c1.562-1.562 4.094-1.562 5.656 0s1.562 4.094 0 5.656l-2.828 2.828 2.828 2.828c1.562 1.562 1.562 4.094 0 5.656-.781.781-1.805 1.172-2.828 1.172s-2.047-.391-2.828-1.172l-2.828-2.828-2.828 2.828c-.781.781-1.805 1.172-2.828 1.172s-2.047-.391-2.828-1.172c-1.563-1.562-1.563-4.093 0-5.656zm112.484 84.969v8c0 2.211-1.789 4-4 4s-4-1.789-4-4v-8c0-2.211 1.789-4 4-4s4 1.789 4 4zm0 25.641v17.641c0 2.211-1.789 4-4 4s-4-1.789-4-4v-17.641c0-2.211 1.789-4 4-4s4 1.789 4 4zm0 35.281v17.641c0 2.211-1.789 4-4 4s-4-1.789-4-4v-17.641c0-2.211 1.789-4 4-4s4 1.789 4 4zm0 35.281v8c0 2.211-1.789 4-4 4h-8c-2.211 0-4-1.789-4-4s1.789-4 4-4h4v-4c0-2.211 1.789-4 4-4s4 1.789 4 4zm-79.113 8c0 2.211-1.789 4-4 4h-14.219c-2.211 0-4-1.789-4-4s1.789-4 4-4h14.219c2.211 0 4 1.789 4 4zm56.89 0c0 2.211-1.789 4-4 4h-14.223c-2.211 0-4-1.789-4-4s1.789-4 4-4h14.223c2.211 0 4 1.789 4 4zm-85.332 0c0 2.211-1.789 4-4 4h-14.222c-2.211 0-4-1.789-4-4s1.789-4 4-4h14.223c2.21 0 3.999 1.789 3.999 4zm56.887 0c0 2.211-1.789 4-4 4h-14.223c-2.211 0-4-1.789-4-4s1.789-4 4-4h14.223c2.211 0 4 1.789 4 4zm-85.332 0c0 2.211-1.789 4-4 4h-8c-2.211 0-4-1.789-4-4v-8c0-2.211 1.789-4 4-4s4 1.789 4 4v4h4c2.211 0 4 1.789 4 4zm-16-22.223v-14.223c0-2.211 1.789-4 4-4s4 1.789 4 4v14.223c0 2.211-1.789 4-4 4s-4-1.789-4-4zm0-28.445v-14.223c0-2.211 1.789-4 4-4s4 1.789 4 4v14.223c0 2.211-1.789 4-4 4s-4-1.789-4-4zm0-28.445v-14.219c0-2.211 1.789-4 4-4s4 1.789 4 4v14.219c0 2.211-1.789 4-4 4s-4-1.789-4-4zm0-28.442v-14.223c0-2.211 1.789-4 4-4s4 1.789 4 4v14.223c0 2.211-1.789 4-4 4s-4-1.789-4-4zm16-36.445c0 2.211-1.789 4-4 4h-4v4c0 2.211-1.789 4-4 4s-4-1.789-4-4v-8c0-2.211 1.789-4 4-4h8c2.211 0 4 1.789 4 4zm29.695 0c0 2.211-1.789 4-4 4h-14.847c-2.211 0-4-1.789-4-4s1.789-4 4-4h14.848c2.21 0 3.999 1.789 3.999 4zm29.692 0c0 2.211-1.789 4-4 4h-14.848c-2.211 0-4-1.789-4-4s1.789-4 4-4h14.848c2.211 0 4 1.789 4 4zm6.843 0c0-2.211 1.789-4 4-4h8c2.211 0 4 1.789 4 4s-1.789 4-4 4h-8c-2.211 0-4-1.789-4-4zm136.364 16.953-108-92c-1.191-1.008-2.855-1.23-4.27-.586-1.418.656-2.324 2.074-2.324 3.633v144c0 1.711 1.09 3.234 2.711 3.785.426.145.859.215 1.289.215 1.219 0 2.398-.559 3.172-1.562l38.797-50.438h66.031c1.676 0 3.176-1.047 3.754-2.617.578-1.574.117-3.34-1.16-4.43zm-70.594-.953c-1.242 0-2.414.578-3.172 1.562l-32.828 42.676v-123.578l93.137 79.34zm40-112c-15.438 0-28 12.562-28 28s12.562 28 28 28 28-12.562 28-28-12.563-28-28-28zm12 32h-8v8c0 2.211-1.789 4-4 4s-4-1.789-4-4v-8h-8c-2.211 0-4-1.789-4-4s1.789-4 4-4h8v-8c0-2.211 1.789-4 4-4s4 1.789 4 4v8h8c2.211 0 4 1.789 4 4s-1.789 4-4 4z" fill="url(#SVGID_1_)"/></g></svg>