<svg xmlns="http://www.w3.org/2000/svg" xmlns:xlink="http://www.w3.org/1999/xlink" width="512" height="512" viewBox="0 0 512 512"><linearGradient id="a" x1="256" x2="256" y1="12" y2="490.602" gradientUnits="userSpaceOnUse"><stop offset="0" stop-color="#00efd1"/><stop offset="1" stop-color="#00acea"/></linearGradient><path fill="url(#a)" d="m449.08 215h-26.545a171.311 171.311 0 0 0 -125.535-125.577v-26.503a9.672 9.672 0 0 0 -9.69-9.92h-62.62a9.672 9.672 0 0 0 -9.69 9.92v26.506a171.357 171.357 0 0 0 -125.534 125.574h-26.546a9.671 9.671 0 0 0 -9.92 9.689v62.622a9.671 9.671 0 0 0 9.92 9.689h26.539a171.2 171.2 0 0 0 125.541 125.548v26.532a9.672 9.672 0 0 0 9.69 9.92h62.62a9.672 9.672 0 0 0 9.69-9.92v-26.507a172.252 172.252 0 0 0 79.911-45.159c22.363-22.277 38.142-49.414 45.65-80.414h26.519a9.671 9.671 0 0 0 9.92-9.689v-62.622a9.671 9.671 0 0 0 -9.92-9.689zm-214.08-142h42v43h-42zm-162 204v-42h43v42zm204 162h-42v-43h42zm85.8-75.755a150.219 150.219 0 0 1 -65.8 38.655v-15.44c0-5.522-4.167-10.46-9.69-10.46h-62.62c-5.523 0-9.69 4.938-9.69 10.46v15.405a150.857 150.857 0 0 1 -104.851-104.865h15.392c5.522 0 10.459-4.167 10.459-9.689v-62.622c0-5.522-4.937-9.689-10.459-9.689h-15.4a150.983 150.983 0 0 1 104.859-104.893v15.433c0 5.522 4.167 10.46 9.69 10.46h62.62c5.523 0 9.69-4.938 9.69-10.46v-15.44a150.922 150.922 0 0 1 104.856 104.9h-15.4c-5.522 0-10.459 4.167-10.459 9.689v62.622c0 5.522 4.937 9.689 10.459 9.689h15.426a151.481 151.481 0 0 1 -39.082 66.245zm76.2-86.245h-43v-42h43z"/></svg>