<svg xmlns="http://www.w3.org/2000/svg" xmlns:xlink="http://www.w3.org/1999/xlink" width="512" height="512" viewBox="0 0 512 512"><linearGradient id="a" x1="256" x2="256" y1="6" y2="485.354" gradientUnits="userSpaceOnUse"><stop offset="0" stop-color="#00efd1"/><stop offset="1" stop-color="#00acea"/></linearGradient><path fill="url(#a)" d="m449.945 52h-62.9a10.084 10.084 0 0 0 -10.045 10.054v21.946h-242v-21.946a10.084 10.084 0 0 0 -10.044-10.054h-62.9a10.093 10.093 0 0 0 -10.056 10.054v62.9a10.085 10.085 0 0 0 10.055 10.046h21.945v242h-21.945a10.085 10.085 0 0 0 -10.055 10.044v62.9a10.093 10.093 0 0 0 10.055 10.056h62.9a10.084 10.084 0 0 0 10.045-10.054v-21.946h242v21.946a10.084 10.084 0 0 0 10.044 10.054h62.9a10.093 10.093 0 0 0 10.056-10.054v-62.9a10.085 10.085 0 0 0 -10.055-10.046h-21.945v-242h21.945a10.085 10.085 0 0 0 10.055-10.044v-62.9a10.093 10.093 0 0 0 -10.055-10.056zm-377.945 63v-43h43v43zm43 325h-43v-43h43zm262-52.956v20.956h-242v-20.956a10.075 10.075 0 0 0 -10.044-10.044h-20.956v-242h20.956a10.075 10.075 0 0 0 10.044-10.044v-20.956h242v20.956a10.075 10.075 0 0 0 10.044 10.044h20.956v242h-20.956a10.075 10.075 0 0 0 -10.044 10.044zm63 9.956v43h-43v-43zm0-282h-43v-43h43z"/></svg>