<svg xmlns="http://www.w3.org/2000/svg" xmlns:xlink="http://www.w3.org/1999/xlink" width="512pt" height="512pt" viewBox="0 0 512 512"><linearGradient id="linear0" x1="0" x2="512" y1="256" y2="256" gradientUnits="userSpaceOnUse"><stop offset="0" stop-color="#00f2fe"/><stop offset=".021" stop-color="#03effe"/><stop offset=".293" stop-color="#24d2fe"/><stop offset=".554" stop-color="#3cbdfe"/><stop offset=".796" stop-color="#4ab0fe"/><stop offset="1" stop-color="#4facfe"/></linearGradient><path fill="url(#linear0)" d="m492 236h-84.378906c-2.421875-18.042969-7.976563-35.105469-16.117188-50.609375-6.257812-11.914063-22.304687-14.304687-31.820312-4.792969v.003906c-6.136719 6.136719-7.695313 15.574219-3.652344 23.257813 5.226562 9.9375 9.019531 20.746094 11.109375 32.140625h-91.140625v-91.140625c11.394531 2.089844 22.203125 5.882813 32.140625 11.109375 7.683594 4.042969 17.121094 2.484375 23.257813-3.652344v-.003906c9.515624-9.511719 7.125-25.558594-4.789063-31.816406-15.503906-8.144532-32.570313-13.695313-50.609375-16.117188v-84.378906c0-11.046875-8.953125-20-20-20s-20 8.953125-20 20v84.242188c-18.136719 2.3125-35.292969 7.792968-50.894531 15.878906-11.972657 6.207031-14.386719 22.316406-4.851563 31.851562l.003906.003906c6.113282 6.113282 15.496094 7.675782 23.167969 3.695313 10.074219-5.222656 21.027344-8.972656 32.570313-10.984375v91.3125h-92.136719c2.128906-11.613281 6.023437-22.617188 11.40625-32.714844 4.101563-7.6875 2.554687-17.179687-3.609375-23.339844-9.496094-9.496093-25.480469-7.128906-31.785156 4.726563-8.347656 15.695313-14.035156 33.007813-16.496094 51.328125h-83.375c-11.046875 0-20 8.953125-20 20s8.953125 20 20 20h83.242188c2.34375 18.414062 7.960937 35.820312 16.253906 51.609375 6.257812 11.914063 22.304687 14.304687 31.820312 4.792969v-.003906c6.136719-6.136719 7.695313-15.574219 3.65625-23.257813-5.382812-10.230469-9.234375-21.378906-11.28125-33.140625h92.308594v92.308594c-11.761719-2.046875-22.910156-5.898438-33.144531-11.277344-7.679688-4.042969-17.117188-2.484375-23.253907 3.652344l-.003906.003906c-9.511718 9.511719-7.121094 25.558594 4.792969 31.816406 15.789063 8.292969 33.195313 13.910156 51.609375 16.257813v83.238281c0 11.046875 8.953125 20 20 20s20-8.953125 20-20v-83.378906c18.320312-2.457032 35.632812-8.144532 51.328125-16.492188 11.855469-6.308594 14.222656-22.292968 4.726563-31.789062-6.160157-6.160156-15.652344-7.707032-23.339844-3.609375-10.097656 5.382812-21.101563 9.277343-32.714844 11.40625v-92.136719h91.3125c-2.011719 11.542969-5.757812 22.496094-10.984375 32.570312-3.980469 7.671876-2.417969 17.058594 3.695313 23.167969l.003906.003907c9.535156 9.535156 25.644531 7.121093 31.851562-4.847657 8.085938-15.601562 13.566406-32.761719 15.878906-50.894531h84.242188c11.046875 0 20-8.953125 20-20s-8.953125-20-20-20zm0 0"/></svg>