<svg id="Capa_1" enable-background="new 0 0 512 512" height="512" viewBox="0 0 512 512" width="512" xmlns="http://www.w3.org/2000/svg" xmlns:xlink="http://www.w3.org/1999/xlink"><linearGradient id="SVGID_1_" gradientUnits="userSpaceOnUse" x1="256" x2="256" y1="512" y2="0"><stop offset="0" stop-color="#ffc8d1"/><stop offset="1" stop-color="#fff6f7"/></linearGradient><linearGradient id="SVGID_2_" gradientUnits="userSpaceOnUse" x1="256" x2="256" y1="407" y2="105"><stop offset="0" stop-color="#ffa68d"/><stop offset="1" stop-color="#fd3a84"/></linearGradient><g><g><circle cx="256" cy="256" fill="url(#SVGID_1_)" r="256"/></g><g><g><path d="m398.118 122.159h-106.589c-4.91 0-8.882 3.981-8.882 8.901v106.815c0 4.92 3.973 8.901 8.882 8.901h106.588c4.91 0 8.882-3.981 8.882-8.901v-106.814c.001-4.92-3.972-8.902-8.881-8.902zm-214.391 146.837c-3.192-5.477-12.144-5.477-15.336 0l-62.176 106.815c-1.613 2.756-1.613 6.155-.035 8.919 1.579 2.764 4.528 4.468 7.703 4.468h124.353c3.175 0 6.124-1.704 7.703-4.468s1.579-6.163-.035-8.919zm-42-27.313c1.579 2.756 4.511 4.451 7.685 4.451h71.059c3.175 0 6.107-1.695 7.685-4.451l35.529-61.666c1.596-2.756 1.596-6.146 0-8.901l-35.529-61.666c-1.579-2.756-4.511-4.451-7.685-4.451h-71.059c-3.175 0-6.107 1.695-7.685 4.451l-35.529 61.666c-1.596 2.756-1.596 6.146 0 8.901zm185.332 22.897c-39.19 0-71.059 31.945-71.059 71.21s31.869 71.21 71.059 71.21 71.059-31.945 71.059-71.21-31.869-71.21-71.059-71.21z" fill="url(#SVGID_2_)"/></g></g></g></svg>