<?xml version="1.0" encoding="iso-8859-1"?>
<!-- Generator: Adobe Illustrator 19.0.0, SVG Export Plug-In . SVG Version: 6.00 Build 0)  -->
<svg version="1.1" id="Capa_1" xmlns="http://www.w3.org/2000/svg" xmlns:xlink="http://www.w3.org/1999/xlink" x="0px" y="0px"
	 viewBox="0 0 512 512" style="enable-background:new 0 0 512 512;" xml:space="preserve">
<linearGradient id="SVGID_1_" gradientUnits="userSpaceOnUse" x1="0" y1="258" x2="512" y2="258" gradientTransform="matrix(1 0 0 -1 0 514)">
	<stop  offset="0" style="stop-color:#00F2FE"/>
	<stop  offset="0.021" style="stop-color:#03EFFE"/>
	<stop  offset="0.293" style="stop-color:#24D2FE"/>
	<stop  offset="0.554" style="stop-color:#3CBDFE"/>
	<stop  offset="0.796" style="stop-color:#4AB0FE"/>
	<stop  offset="1" style="stop-color:#4FACFE"/>
</linearGradient>
<path style="fill:url(#SVGID_1_);" d="M67,255c0,11.046-8.954,20-20,20H20c-11.046,0-20-8.954-20-20s8.954-20,20-20h27
	C58.046,235,67,243.954,67,255z M236,86c11.046,0,20-8.954,20-20V39c0-11.046-8.954-20-20-20s-20,8.954-20,20v27
	C216,77.046,224.954,86,236,86z M88.921,135.206c3.905,3.905,9.024,5.857,14.143,5.857s10.237-1.952,14.143-5.857
	c7.81-7.811,7.81-20.475,0-28.285L98.114,87.829c-7.811-7.811-20.475-7.811-28.285,0s-7.81,20.475,0,28.285L88.921,135.206z
	 M88.921,372.794l-19.092,19.092c-7.81,7.811-7.81,20.475,0,28.285c3.905,3.905,9.024,5.857,14.143,5.857s10.237-1.952,14.143-5.857
	l19.092-19.092c7.81-7.811,7.81-20.475,0-28.285C109.396,364.983,96.731,364.983,88.921,372.794z M236,426c-11.046,0-20,8.954-20,20
	v27c0,11.046,8.954,20,20,20s20-8.954,20-20v-27C256,434.954,247.046,426,236,426z M512,254c0,19.716-3.894,38.842-11.573,56.847
	c-4.334,10.159-16.082,14.884-26.243,10.55c-10.16-4.334-14.884-16.083-10.55-26.243C469.186,282.138,472,268.292,472,254
	c0-57.897-47.103-105-105-105c-9.484,0-18.676,1.271-27.422,3.64C365.186,178.802,381,214.586,381,254s-15.814,75.198-41.422,101.36
	c8.746,2.368,17.938,3.64,27.422,3.64c12.732,0,25.167-2.249,36.96-6.684c10.338-3.891,21.871,1.34,25.76,11.68
	c3.889,10.338-1.341,21.871-11.68,25.76C401.731,395.89,384.559,399,367,399c-23.556,0-45.814-5.65-65.5-15.66
	C281.814,393.35,259.556,399,236,399c-79.953,0-145-65.047-145-145s65.047-145,145-145c23.556,0,45.814,5.65,65.5,15.66
	C321.186,114.65,343.444,109,367,109C446.953,109,512,174.047,512,254z M236,359c9.484,0,18.676-1.271,27.422-3.64
	C237.814,329.198,222,293.414,222,254s15.814-75.198,41.422-101.36C254.676,150.271,245.484,149,236,149
	c-57.897,0-105,47.103-105,105S178.103,359,236,359z M301.5,171.999C277.44,191.256,262,220.856,262,254s15.44,62.744,39.5,82.001
	C325.56,316.744,341,287.144,341,254S325.56,191.256,301.5,171.999z"/>
<g>
</g>
<g>
</g>
<g>
</g>
<g>
</g>
<g>
</g>
<g>
</g>
<g>
</g>
<g>
</g>
<g>
</g>
<g>
</g>
<g>
</g>
<g>
</g>
<g>
</g>
<g>
</g>
<g>
</g>
</svg>
