<?xml version="1.0" encoding="iso-8859-1"?>
<!-- Generator: Adobe Illustrator 19.0.0, SVG Export Plug-In . SVG Version: 6.00 Build 0)  -->
<svg version="1.1" id="Capa_1" xmlns="http://www.w3.org/2000/svg" xmlns:xlink="http://www.w3.org/1999/xlink" x="0px" y="0px"
	 viewBox="0 0 512 512" style="enable-background:new 0 0 512 512;" xml:space="preserve">
<linearGradient id="SVGID_1_" gradientUnits="userSpaceOnUse" x1="0" y1="258" x2="512" y2="258" gradientTransform="matrix(1 0 0 -1 0 514)">
	<stop  offset="0" style="stop-color:#80D8FF"/>
	<stop  offset="1" style="stop-color:#EA80FC"/>
</linearGradient>
<path style="fill:url(#SVGID_1_);" d="M412,312c-8.966,0-17.657,1.193-25.931,3.417l-68.381-136.762
	C341.001,160.331,356,131.884,356,100C356,44.859,311.14,0,256,0S156,44.859,156,100c0,31.884,14.999,60.331,38.312,78.655
	l-68.381,136.762C117.657,313.193,108.966,312,100,312C44.86,312,0,356.859,0,412s44.86,100,100,100s100-44.859,100-100
	c0-31.884-14.999-60.331-38.312-78.655l68.381-136.762C238.343,198.807,247.034,200,256,200s17.657-1.193,25.931-3.417
	l68.381,136.762C326.999,351.669,312,380.116,312,412c0,55.141,44.86,100,100,100s100-44.859,100-100S467.14,312,412,312z M100,472
	c-33.084,0-60-26.916-60-60s26.916-60,60-60s60,26.916,60,60S133.084,472,100,472z M196,100c0-33.084,26.916-60,60-60
	s60,26.916,60,60s-26.916,60-60,60S196,133.084,196,100z M412,472c-33.084,0-60-26.916-60-60s26.916-60,60-60s60,26.916,60,60
	S445.084,472,412,472z"/>
<g>
</g>
<g>
</g>
<g>
</g>
<g>
</g>
<g>
</g>
<g>
</g>
<g>
</g>
<g>
</g>
<g>
</g>
<g>
</g>
<g>
</g>
<g>
</g>
<g>
</g>
<g>
</g>
<g>
</g>
</svg>
