<?xml version="1.0" encoding="iso-8859-1"?>
<!-- Generator: Adobe Illustrator 19.0.0, SVG Export Plug-In . SVG Version: 6.00 Build 0)  -->
<svg version="1.1" id="Capa_1" xmlns="http://www.w3.org/2000/svg" xmlns:xlink="http://www.w3.org/1999/xlink" x="0px" y="0px"
	 viewBox="0 0 512.001 512.001" style="enable-background:new 0 0 512.001 512.001;" xml:space="preserve">
<linearGradient id="SVGID_1_" gradientUnits="userSpaceOnUse" x1="256.6534" y1="489.155" x2="256.6534" y2="25.155" gradientTransform="matrix(0.9979 0 0 -0.9979 -0.1047 512.6062)">
	<stop  offset="0" style="stop-color:#2AF598"/>
	<stop  offset="1" style="stop-color:#009EFD"/>
</linearGradient>
<path style="fill:url(#SVGID_1_);" d="M378.285,127.276c-26.024,0-50.33,7.481-70.895,20.393
	c-20.565-12.912-44.872-20.393-70.895-20.393c-73.73,0-133.714,59.984-133.714,133.714s59.984,133.714,133.714,133.714
	c26.024,0,50.33-7.481,70.896-20.394c20.566,12.913,44.872,20.394,70.896,20.394c73.73,0,133.714-59.984,133.714-133.714
	S452.015,127.276,378.285,127.276z M307.39,322.344c-14.262-16.459-22.903-37.916-22.903-61.354s8.641-44.895,22.903-61.354
	c14.262,16.459,22.903,37.916,22.903,61.354S321.652,305.885,307.39,322.344z M142.695,260.99c0-51.721,42.078-93.799,93.799-93.799
	c13.879,0,27.063,3.034,38.927,8.467c-19.254,23.17-30.848,52.922-30.848,85.332s11.594,62.162,30.848,85.332
	c-11.864,5.433-25.047,8.467-38.927,8.467C184.772,354.789,142.695,312.711,142.695,260.99z M378.286,354.789L378.286,354.789
	c-13.88,0-27.063-3.034-38.927-8.467c19.254-23.17,30.848-52.922,30.848-85.332s-11.594-62.162-30.848-85.332
	c11.864-5.433,25.047-8.467,38.927-8.467c51.721,0,93.799,42.078,93.799,93.799S430.008,354.789,378.286,354.789z M61.868,279.949H0
	v-39.915h61.868V279.949z M253.457,86.364h-39.915V24.496h39.915V86.364z M94.618,152.984l-43.747-43.747l28.225-28.225
	l43.747,43.747L94.618,152.984z M100.263,364.661l28.225,28.225l-43.747,43.747l-28.225-28.225L100.263,364.661z M215.539,425.637
	h39.915v61.868h-39.915V425.637z"/>
<g>
</g>
<g>
</g>
<g>
</g>
<g>
</g>
<g>
</g>
<g>
</g>
<g>
</g>
<g>
</g>
<g>
</g>
<g>
</g>
<g>
</g>
<g>
</g>
<g>
</g>
<g>
</g>
<g>
</g>
</svg>
