<?xml version="1.0" encoding="iso-8859-1"?>
<!-- Generator: Adobe Illustrator 19.0.0, SVG Export Plug-In . SVG Version: 6.00 Build 0)  -->
<svg version="1.1" id="Capa_1" xmlns="http://www.w3.org/2000/svg" xmlns:xlink="http://www.w3.org/1999/xlink" x="0px" y="0px"
	 viewBox="0 0 512 512" style="enable-background:new 0 0 512 512;" xml:space="preserve">
<linearGradient id="SVGID_1_" gradientUnits="userSpaceOnUse" x1="256" y1="514" x2="256" y2="2" gradientTransform="matrix(1 0 0 -1 0 514)">
	<stop  offset="0" style="stop-color:#2AF598"/>
	<stop  offset="1" style="stop-color:#009EFD"/>
</linearGradient>
<path style="fill:url(#SVGID_1_);" d="M393,393V196h-77v-77H119v197h77v77H393z M353,236v117H236v-37h80v-80H353z M236,276v-40h40
	v40H236z M159,276V159h117v37h-80v80H159z M0,0h80v80H0V0z M512,0v80h-80V0H512z M316,80h-40V40h40V80z M354,40h40v40h-40V40z
	 M238,80h-40V40h40V80z M160,80h-40V40h40V80z M432,432h80v80h-80V432z M472,316h-40v-40h40V316z M472,394h-40v-40h40V394z M472,238
	h-40v-40h40V238z M472,160h-40v-40h40V160z M0,432h80v80H0V432z M40,276h40v40H40V276z M40,354h40v40H40V354z M40,198h40v40H40V198z
	 M40,120h40v40H40V120z M276,432h40v40h-40V432z M354,432h40v40h-40V432z M198,432h40v40h-40V432z M120,432h40v40h-40V432z"/>
<g>
</g>
<g>
</g>
<g>
</g>
<g>
</g>
<g>
</g>
<g>
</g>
<g>
</g>
<g>
</g>
<g>
</g>
<g>
</g>
<g>
</g>
<g>
</g>
<g>
</g>
<g>
</g>
<g>
</g>
</svg>
