<?xml version="1.0"?>
<svg xmlns="http://www.w3.org/2000/svg" xmlns:xlink="http://www.w3.org/1999/xlink" width="512" height="512" viewBox="0 0 128 128"><defs><linearGradient id="a" x1="105.862" y1="105.891" x2="22.109" y2="22.138" gradientUnits="userSpaceOnUse"><stop offset="0" stop-color="#3ba9fd"/><stop offset="1" stop-color="#bae543"/></linearGradient></defs><path d="M123.25,64a59.3,59.3,0,0,1-73.421,57.544,1.749,1.749,0,1,1,.834-3.4,55.739,55.739,0,1,0-8.811-2.968,1.75,1.75,0,0,1-1.393,3.211A59.256,59.256,0,1,1,123.25,64ZM92.574,27.022a1.75,1.75,0,0,0,2.143-2.767c-1.056-.817-2.16-1.605-3.285-2.34a1.75,1.75,0,1,0-1.916,2.928C90.562,25.528,91.592,26.262,92.574,27.022ZM83.691,21.6a46.136,46.136,0,0,0-17.272-4.288L76.027,47.33H107.67a46.721,46.721,0,0,0-9.678-15.392,1.75,1.75,0,1,1,2.545-2.4,50.138,50.138,0,1,1-15.366-11.1,1.75,1.75,0,1,1-1.48,3.172ZM20.333,47.33h31.64l9.609-30.018A46.839,46.839,0,0,0,20.333,47.33Zm30.508,3.5H23.229L45.56,67.078ZM38.952,98.721,61.026,82.66,47.4,72.744Zm-4.229,1.689,9.7-29.832L18.83,51.958A46.673,46.673,0,0,0,34.723,100.41ZM64,110.75a46.463,46.463,0,0,0,25.336-7.491L64,84.824,38.664,103.259A46.463,46.463,0,0,0,64,110.75ZM89.048,98.721,80.6,72.744,66.974,82.66Zm20.117-46.76L83.579,70.578l9.7,29.832a46.638,46.638,0,0,0,15.888-48.449ZM77.159,50.83l5.282,16.248,22.33-16.248Zm-3.68,0H54.521L48.536,69.243,64,80.5,79.464,69.243Zm-1.127-3.5L64,21.24,55.648,47.33ZM33.587,36.092a1.746,1.746,0,0,0,1.253-.529,41.133,41.133,0,0,1,5.26-4.549,1.75,1.75,0,0,0-2.057-2.832,44.74,44.74,0,0,0-5.709,4.938,1.75,1.75,0,0,0,1.253,2.972Z" fill="url(#a)"/></svg>
