<?xml version="1.0" encoding="iso-8859-1"?>
<!-- Generator: Adobe Illustrator 21.0.0, SVG Export Plug-In . SVG Version: 6.00 Build 0)  -->
<svg version="1.1" id="Capa_1" xmlns="http://www.w3.org/2000/svg" xmlns:xlink="http://www.w3.org/1999/xlink" x="0px" y="0px"
	 viewBox="0 0 512 512" style="enable-background:new 0 0 512 512;" xml:space="preserve">
<linearGradient id="SVGID_1_" gradientUnits="userSpaceOnUse" x1="74.9807" y1="439.0193" x2="437.0193" y2="76.9807" gradientTransform="matrix(1 0 0 -1 0 514)">
	<stop  offset="0" style="stop-color:#A3DBFF"/>
	<stop  offset="1" style="stop-color:#45A2E0"/>
</linearGradient>
<circle style="fill:url(#SVGID_1_);" cx="256" cy="256" r="256"/>
<linearGradient id="SVGID_2_" gradientUnits="userSpaceOnUse" x1="86.26" y1="258" x2="256" y2="258" gradientTransform="matrix(1 0 0 -1 0 514)">
	<stop  offset="0" style="stop-color:#FFE290"/>
	<stop  offset="1" style="stop-color:#FFCE47"/>
</linearGradient>
<rect x="86.26" y="158" style="fill:url(#SVGID_2_);" width="169.74" height="196"/>
<linearGradient id="SVGID_3_" gradientUnits="userSpaceOnUse" x1="256" y1="258" x2="425.74" y2="258" gradientTransform="matrix(1 0 0 -1 0 514)">
	<stop  offset="0" style="stop-color:#FFB14E"/>
	<stop  offset="1" style="stop-color:#FF755C"/>
</linearGradient>
<rect x="256" y="158" style="fill:url(#SVGID_3_);" width="169.74" height="196"/>
<linearGradient id="SVGID_4_" gradientUnits="userSpaceOnUse" x1="225.375" y1="160.0015" x2="425.739" y2="160.0015" gradientTransform="matrix(1 0 0 -1 0 514)">
	<stop  offset="0" style="stop-color:#FF9356"/>
	<stop  offset="1" style="stop-color:#FF4181"/>
</linearGradient>
<polygon style="fill:url(#SVGID_4_);" points="256,255.997 225.375,353.999 256,452 425.739,353.999 "/>
<polygon style="fill:#FF9356;" points="86.261,353.999 256,452 256,255.997 "/>
<linearGradient id="SVGID_5_" gradientUnits="userSpaceOnUse" x1="225.375" y1="355.9985" x2="425.739" y2="355.9985" gradientTransform="matrix(1 0 0 -1 0 514)">
	<stop  offset="0" style="stop-color:#FFE290"/>
	<stop  offset="1" style="stop-color:#FFCE47"/>
</linearGradient>
<polygon style="fill:url(#SVGID_5_);" points="256,60 225.375,158.001 256,256.003 425.739,158.001 "/>
<linearGradient id="SVGID_6_" gradientUnits="userSpaceOnUse" x1="86.261" y1="355.9985" x2="256" y2="355.9985" gradientTransform="matrix(1 0 0 -1 0 514)">
	<stop  offset="0" style="stop-color:#FFF5D9"/>
	<stop  offset="1" style="stop-color:#FFE290"/>
</linearGradient>
<polygon style="fill:url(#SVGID_6_);" points="86.261,158.001 256,256.003 256,60 "/>
<linearGradient id="SVGID_7_" gradientUnits="userSpaceOnUse" x1="178.14" y1="257.995" x2="256.004" y2="257.995" gradientTransform="matrix(1 0 0 -1 0 514)">
	<stop  offset="0" style="stop-color:#FF82B3"/>
	<stop  offset="1" style="stop-color:#A6437A"/>
</linearGradient>
<rect x="178.14" y="211.05" style="fill:url(#SVGID_7_);" width="77.864" height="89.91"/>
<linearGradient id="SVGID_8_" gradientUnits="userSpaceOnUse" x1="256" y1="257.995" x2="333.864" y2="257.995" gradientTransform="matrix(1 0 0 -1 0 514)">
	<stop  offset="0" style="stop-color:#FF4181"/>
	<stop  offset="1" style="stop-color:#843561"/>
</linearGradient>
<rect x="256" y="211.05" style="fill:url(#SVGID_8_);" width="77.864" height="89.91"/>
<linearGradient id="SVGID_9_" gradientUnits="userSpaceOnUse" x1="241.951" y1="213.047" x2="333.864" y2="213.047" gradientTransform="matrix(1 0 0 -1 0 514)">
	<stop  offset="0" style="stop-color:#AD396B"/>
	<stop  offset="1" style="stop-color:#3A2F4D"/>
</linearGradient>
<polygon style="fill:url(#SVGID_9_);" points="256,255.997 241.951,300.953 256,345.909 333.864,300.953 "/>
<linearGradient id="SVGID_10_" gradientUnits="userSpaceOnUse" x1="178.136" y1="213.047" x2="256" y2="213.047" gradientTransform="matrix(1 0 0 -1 0 514)">
	<stop  offset="0" style="stop-color:#FF4181"/>
	<stop  offset="1" style="stop-color:#843561"/>
</linearGradient>
<polygon style="fill:url(#SVGID_10_);" points="178.136,300.953 256,345.909 256,255.997 "/>
<linearGradient id="SVGID_11_" gradientUnits="userSpaceOnUse" x1="241.951" y1="302.953" x2="333.864" y2="302.953" gradientTransform="matrix(1 0 0 -1 0 514)">
	<stop  offset="0" style="stop-color:#FF82B3"/>
	<stop  offset="1" style="stop-color:#A6437A"/>
</linearGradient>
<polygon style="fill:url(#SVGID_11_);" points="256,166.091 241.951,211.047 256,256.003 333.864,211.047 "/>
<linearGradient id="SVGID_12_" gradientUnits="userSpaceOnUse" x1="178.136" y1="302.953" x2="256" y2="302.953" gradientTransform="matrix(1 0 0 -1 0 514)">
	<stop  offset="0" style="stop-color:#FFC0D5"/>
	<stop  offset="1" style="stop-color:#FFA0C0"/>
</linearGradient>
<polygon style="fill:url(#SVGID_12_);" points="178.136,211.047 256,256.003 256,166.091 "/>
<g>
</g>
<g>
</g>
<g>
</g>
<g>
</g>
<g>
</g>
<g>
</g>
<g>
</g>
<g>
</g>
<g>
</g>
<g>
</g>
<g>
</g>
<g>
</g>
<g>
</g>
<g>
</g>
<g>
</g>
</svg>
