<svg xmlns="http://www.w3.org/2000/svg" xmlns:xlink="http://www.w3.org/1999/xlink" id="Capa_1" x="0" y="0" version="1.1" viewBox="0 0 512 512" xml:space="preserve" style="enable-background:new 0 0 512 512"><linearGradient id="SVGID_1_" x1="74.981" x2="437.019" y1="439.019" y2="76.981" gradientTransform="matrix(1 0 0 -1 0 514)" gradientUnits="userSpaceOnUse"><stop offset="0" style="stop-color:#a3dbff"/><stop offset="1" style="stop-color:#45a2e0"/></linearGradient><circle style="fill:url(#SVGID_1_)" cx="256" cy="256" r="256"/><linearGradient id="SVGID_2_" x1="86.26" x2="256" y1="258" y2="258" gradientTransform="matrix(1 0 0 -1 0 514)" gradientUnits="userSpaceOnUse"><stop offset="0" style="stop-color:#ffe290"/><stop offset="1" style="stop-color:#ffce47"/></linearGradient><rect style="fill:url(#SVGID_2_)" width="169.74" height="196" x="86.26" y="158"/><linearGradient id="SVGID_3_" x1="256" x2="425.74" y1="258" y2="258" gradientTransform="matrix(1 0 0 -1 0 514)" gradientUnits="userSpaceOnUse"><stop offset="0" style="stop-color:#ffb14e"/><stop offset="1" style="stop-color:#ff755c"/></linearGradient><rect style="fill:url(#SVGID_3_)" width="169.74" height="196" x="256" y="158"/><linearGradient id="SVGID_4_" x1="225.375" x2="425.739" y1="160.001" y2="160.001" gradientTransform="matrix(1 0 0 -1 0 514)" gradientUnits="userSpaceOnUse"><stop offset="0" style="stop-color:#ff9356"/><stop offset="1" style="stop-color:#ff4181"/></linearGradient><polygon style="fill:url(#SVGID_4_)" points="256 255.997 225.375 353.999 256 452 425.739 353.999"/><polygon style="fill:#ff9356" points="86.261 353.999 256 452 256 255.997"/><linearGradient id="SVGID_5_" x1="225.375" x2="425.739" y1="355.998" y2="355.998" gradientTransform="matrix(1 0 0 -1 0 514)" gradientUnits="userSpaceOnUse"><stop offset="0" style="stop-color:#ffe290"/><stop offset="1" style="stop-color:#ffce47"/></linearGradient><polygon style="fill:url(#SVGID_5_)" points="256 60 225.375 158.001 256 256.003 425.739 158.001"/><linearGradient id="SVGID_6_" x1="86.261" x2="256" y1="355.998" y2="355.998" gradientTransform="matrix(1 0 0 -1 0 514)" gradientUnits="userSpaceOnUse"><stop offset="0" style="stop-color:#fff5d9"/><stop offset="1" style="stop-color:#ffe290"/></linearGradient><polygon style="fill:url(#SVGID_6_)" points="86.261 158.001 256 256.003 256 60"/><linearGradient id="SVGID_7_" x1="178.14" x2="256.004" y1="257.995" y2="257.995" gradientTransform="matrix(1 0 0 -1 0 514)" gradientUnits="userSpaceOnUse"><stop offset="0" style="stop-color:#ff82b3"/><stop offset="1" style="stop-color:#a6437a"/></linearGradient><rect style="fill:url(#SVGID_7_)" width="77.864" height="89.91" x="178.14" y="211.05"/><linearGradient id="SVGID_8_" x1="256" x2="333.864" y1="257.995" y2="257.995" gradientTransform="matrix(1 0 0 -1 0 514)" gradientUnits="userSpaceOnUse"><stop offset="0" style="stop-color:#ff4181"/><stop offset="1" style="stop-color:#843561"/></linearGradient><rect style="fill:url(#SVGID_8_)" width="77.864" height="89.91" x="256" y="211.05"/><linearGradient id="SVGID_9_" x1="241.951" x2="333.864" y1="213.047" y2="213.047" gradientTransform="matrix(1 0 0 -1 0 514)" gradientUnits="userSpaceOnUse"><stop offset="0" style="stop-color:#ad396b"/><stop offset="1" style="stop-color:#3a2f4d"/></linearGradient><polygon style="fill:url(#SVGID_9_)" points="256 255.997 241.951 300.953 256 345.909 333.864 300.953"/><linearGradient id="SVGID_10_" x1="178.136" x2="256" y1="213.047" y2="213.047" gradientTransform="matrix(1 0 0 -1 0 514)" gradientUnits="userSpaceOnUse"><stop offset="0" style="stop-color:#ff4181"/><stop offset="1" style="stop-color:#843561"/></linearGradient><polygon style="fill:url(#SVGID_10_)" points="178.136 300.953 256 345.909 256 255.997"/><linearGradient id="SVGID_11_" x1="241.951" x2="333.864" y1="302.953" y2="302.953" gradientTransform="matrix(1 0 0 -1 0 514)" gradientUnits="userSpaceOnUse"><stop offset="0" style="stop-color:#ff82b3"/><stop offset="1" style="stop-color:#a6437a"/></linearGradient><polygon style="fill:url(#SVGID_11_)" points="256 166.091 241.951 211.047 256 256.003 333.864 211.047"/><linearGradient id="SVGID_12_" x1="178.136" x2="256" y1="302.953" y2="302.953" gradientTransform="matrix(1 0 0 -1 0 514)" gradientUnits="userSpaceOnUse"><stop offset="0" style="stop-color:#ffc0d5"/><stop offset="1" style="stop-color:#ffa0c0"/></linearGradient><polygon style="fill:url(#SVGID_12_)" points="178.136 211.047 256 256.003 256 166.091"/></svg>