<svg xmlns="http://www.w3.org/2000/svg" xmlns:xlink="http://www.w3.org/1999/xlink" id="Layer_1" width="512" height="512" data-name="Layer 1" viewBox="0 0 512 512"><defs><linearGradient id="linear-gradient" x1="256" x2="256" y1="24.712" y2="478.957" gradientUnits="userSpaceOnUse"><stop offset="0" stop-color="#00efd1"/><stop offset="1" stop-color="#00acea"/></linearGradient><linearGradient id="linear-gradient-2" x1="193.382" x2="193.382" y1="24.712" y2="478.957" xlink:href="#linear-gradient"/><linearGradient id="linear-gradient-3" x1="318.618" x2="318.618" y1="24.712" y2="478.957" xlink:href="#linear-gradient"/></defs><title>Character</title><path d="M256,17.2c-90.634,0-164,73.737-164,164.37v278.7C92,479.309,107.125,495,126.172,495h3.463A34.6,34.6,0,0,0,164,460.262v-77.32a29,29,0,0,1,58,0v77.32a34.5,34.5,0,1,0,69,0v-77.32a29,29,0,0,1,58,0v77.32A34.73,34.73,0,0,0,383.52,495h2.308C404.875,495,420,479.309,420,460.262v-278.7C420,90.932,346.634,17.2,256,17.2ZM404,460.262C404,470.486,396.052,479,385.828,479H383.52A18.712,18.712,0,0,1,365,460.262v-77.32a45,45,0,0,0-90,0v77.32a18.5,18.5,0,1,1-37,0v-77.32a45,45,0,0,0-90,0v77.32A18.581,18.581,0,0,1,129.635,479h-3.463C115.948,479,108,470.486,108,460.262v-278.7C108,99.754,174.188,33.2,256,33.2s148,66.559,148,148.37Z" style="fill:url(#linear-gradient)"/><path d="M193.382,155.4a40.353,40.353,0,1,0,40.352,40.353A40.4,40.4,0,0,0,193.382,155.4Zm0,64.7a24.353,24.353,0,1,1,24.352-24.352A24.379,24.379,0,0,1,193.382,220.106Z" style="fill:url(#linear-gradient-2)"/><path d="M318.618,155.4a40.353,40.353,0,1,0,40.353,40.353A40.4,40.4,0,0,0,318.618,155.4Zm0,64.7a24.353,24.353,0,1,1,24.353-24.352A24.379,24.379,0,0,1,318.618,220.106Z" style="fill:url(#linear-gradient-3)"/></svg>