<svg id="Capa_1" enable-background="new 0 0 512 512" height="512" viewBox="0 0 512 512" width="512" xmlns="http://www.w3.org/2000/svg" xmlns:xlink="http://www.w3.org/1999/xlink"><linearGradient id="SVGID_1_" gradientUnits="userSpaceOnUse" x1="256" x2="256" y1="511.458" y2=".542"><stop offset="0" stop-color="#fd3a84"/><stop offset="1" stop-color="#ffa68d"/></linearGradient><g><g><path d="m377 271.458c-66.182 0-120 53.833-120 120s53.818 120 120 120 120-53.833 120-120-53.818-120-120-120zm0 210c-49.629 0-90-40.371-90-90s40.371-90 90-90 90 40.371 90 90-40.371 90-90 90zm-244.051-203.559c-5.391-9.229-20.508-9.229-25.898 0l-105 180c-2.725 4.644-2.725 10.371-.059 15.029s7.646 7.529 13.008 7.529h210c5.361 0 10.342-2.871 13.008-7.529s2.666-10.386-.059-15.029zm-91.845 172.559 78.896-135.234 78.896 135.234zm20.918-219.584c2.666 4.644 7.617 7.5 12.979 7.5h120c5.361 0 10.312-2.856 12.979-7.5l60-103.916c2.695-4.644 2.695-10.356 0-15l-60-103.916c-2.666-4.644-7.617-7.5-12.979-7.5h-120.001c-5.361 0-10.313 2.856-12.979 7.5l-60 103.916c-2.695 4.644-2.695 10.356 0 15zm21.65-200.332h102.656l51.357 88.916-51.357 88.916h-102.656l-51.357-88.916zm413.328-.084h-180c-8.291 0-15 6.709-15 15v180c0 8.291 6.709 15 15 15h180c8.291 0 15-6.709 15-15v-180c0-8.291-6.709-15-15-15zm-15 180h-150v-150h150z" fill="url(#SVGID_1_)"/></g></g></svg>