<svg id="Layer_1" enable-background="new 0 0 256 256" height="512" viewBox="0 0 256 256" width="512" xmlns="http://www.w3.org/2000/svg"><g><g><g><path d="m140.24 196.709v42.176c0 6.69-5.425 12.115-12.115 12.115s-12.105-5.425-12.105-12.115v-42.072l11.98 4.781z" fill="#f0c020"/></g><g><g><path d="m140.24 196.709v7.821l-12.24 4.885-11.981-4.792v-7.811l11.981 4.782z" fill="#f0ab20"/></g><g><path d="m180.476 157.852-8.36-3.34-44.116 17.634-44.116-17.634-8.36 3.34-28.494 11.389 68.989 27.571 11.981 4.782 12.24-4.885 68.73-27.468z" fill="#fc5d3d"/></g><g><path d="m127.072 193.23-54.225-21.667c-1.282-.512-1.906-1.967-1.394-3.249.513-1.281 1.965-1.906 3.249-1.394l53.298 21.297 53.297-21.296c1.286-.515 2.737.112 3.249 1.394.513 1.282-.111 2.737-1.394 3.249l-54.225 21.667c-.595.238-1.259.238-1.855-.001z" fill="#ffcbc2"/></g><g><path d="m180.478 157.854-52.478 20.979-52.478-20.979 8.362-3.337 44.116 17.629 44.116-17.629z" fill="#b35034"/></g><g><path d="m197.078 144.542-24.962 9.975-44.116 17.629-44.116-17.629-24.962-9.975 28.497-11.389 8.362-3.337 32.219 12.878 32.219-12.878 8.349 3.337z" fill="#72c1e8"/></g><g><path d="m127.072 163.779-42.328-16.915c-1.282-.512-1.906-1.967-1.394-3.249.513-1.281 1.965-1.907 3.249-1.394l41.4 16.544 28.401-11.349c1.287-.514 2.737.112 3.249 1.394.513 1.282-.111 2.737-1.394 3.249l-29.329 11.72c-.589.237-1.253.241-1.854 0zm37.221-16.824c-.513-1.282.111-2.737 1.394-3.249l3.715-1.484c1.286-.514 2.737.112 3.249 1.394.513 1.282-.111 2.737-1.394 3.249l-3.715 1.484c-1.28.513-2.736-.111-3.249-1.394z" fill="#c5e5ff"/></g><g><path d="m168.568 133.153-6.054 2.419-34.514 13.808c-40.09-16.033-32.514-13.004-40.581-16.227l8.362-3.337 32.219 12.878 32.219-12.878z" fill="#68b0d4"/></g><g><path d="m185.18 119.85-24.96 9.97-32.22 12.87-32.22-12.87-24.96-9.97 45.47-18.16c-.07 3.37-.16 7.4-.27 12.24 8.2 1.53 16.8 1.4 24.22-.04-.06-5.17-.01-4.48-.25-12.09z" fill="#13bf6d"/></g><g><path d="m127.072 134.327-30.413-12.157c-1.282-.513-1.906-1.967-1.394-3.249.512-1.281 1.971-1.907 3.249-1.394l29.486 11.786 17.414-6.961c1.279-.515 2.736.11 3.249 1.394.513 1.282-.111 2.736-1.394 3.249l-18.342 7.332c-.591.237-1.255.24-1.855 0zm26.234-12.437c-.513-1.282.111-2.737 1.394-3.249l2.786-1.113c1.287-.514 2.737.112 3.249 1.394.513 1.282-.111 2.737-1.394 3.249l-2.786 1.113c-1.281.512-2.737-.111-3.249-1.394z" fill="#76ffba"/></g></g><g><g><path d="m106.824 46.917c.006-3.758.941-8.611 2.805-13.726l.006-.006 13.393-7.212 11.493 11.493 8.831-5.246c3.138 5.187 5.824 9.814 5.824 14.697-.006 7.569-3.984 14.244-9.975 17.984h-22.319c-6.038-3.727-10.052-10.367-10.058-17.984z" fill="#4c4945"/></g><path d="m139.99 101.8c-.14-4.39-.38-11.55-.78-24.19l-.01-.01h-22.31v.01c-.23 7.22-.15 3.5-.6 24.08-.07 3.37-.16 7.4-.27 12.24 8.2 1.53 16.8 1.4 24.22-.04-.06-5.17-.01-4.48-.25-12.09z" fill="#f0c020"/><g><path d="m129.475 115.068-.927-28.962c-.044-1.38 1.039-2.534 2.419-2.579 1.387-.052 2.534 1.039 2.579 2.419l.927 28.962c.044 1.38-1.039 2.534-2.419 2.579-1.357.049-2.534-1.021-2.579-2.419z" fill="#f9e5af"/></g><g><path d="m109.635 33.185c3.936-10.844 11.999-22.897 23.969-28.185.071 11.612 5.354 19.967 9.748 27.22l-8.831 5.246-11.493-11.493z" fill="#fc5d3d"/></g><g><path d="m135.481 39.4c-.847 0-1.673-.431-2.143-1.209-2.762-4.574-6.123-10.096-8.398-16.457-.466-1.3.211-2.73 1.512-3.195 1.3-.467 2.73.211 3.195 1.512 2.139 5.975 5.287 11.1 7.973 15.559 1.007 1.67-.207 3.79-2.139 3.79z" fill="#ffcbc2"/></g><g><path d="m133.924 57.649c-.898-1.049-.776-2.627.271-3.525 2.107-1.806 3.316-4.435 3.316-7.213 0-1.786-2.218-5.471-4.174-8.722-.712-1.183-.33-2.719.853-3.431s2.719-.33 3.431.853c2.624 4.36 4.891 8.125 4.891 11.3 0 4.239-1.846 8.252-5.063 11.01-1.05.9-2.629.775-3.525-.272z" fill="#afafaf"/></g><g><path d="m116.888 77.61-.006-12.708h22.319v12.702h-22.307z" fill="#efefef"/></g></g></g><g><g><path d="m74.882 218.83c-3.501-1.157-7.117-2.168-9.147-10.913-1.87 8.055-4.866 9.498-9.147 10.913 6.984 2.308 8.037 6.129 9.147 10.913 1.914-8.247 5.079-9.568 9.147-10.913z" fill="#f0c020"/></g></g><g><g><path d="m189.358 71.238c-3.501-1.157-7.117-2.168-9.147-10.913-1.87 8.055-4.865 9.498-9.147 10.913 6.984 2.308 8.037 6.129 9.147 10.913 1.913-8.248 5.078-9.569 9.147-10.913z" fill="#f0c020"/></g></g><g><g><g><path d="m212.642 96.702c-3.501-1.157-7.117-2.168-9.147-10.913-1.87 8.055-4.865 9.498-9.147 10.913 6.984 2.308 8.037 6.129 9.147 10.913 1.914-8.247 5.079-9.568 9.147-10.913z" fill="#f0c020"/></g></g><g><path d="m174.62 180.28c-1.292.521-1.904 1.949-1.4 3.25.512 1.28 1.968 1.903 3.25 1.39 1.261-.508 1.912-1.923 1.4-3.25-.544-1.325-2.032-1.894-3.25-1.39z"/><path d="m209.899 166.92-31.042-12.405 19.147-7.651c2.089-.834 2.094-3.807 0-4.643l-31.034-12.399 19.139-7.641c2.098-.861 2.082-3.817 0-4.65l-11.41-4.56c-1.367-.502-2.756.153-3.25 1.4-.51 1.28.12 2.74 1.4 3.25l5.59 2.23-19.132 7.643c-.039.015-.079.029-.117.047l-31.19 12.459c-11.483-4.587-40.159-16.043-50.44-20.15l36.15-14.44-.19 8.46c-.03 1.23.83 2.29 2.04 2.52 8.507 1.572 17.448 1.456 25.15-.05 1.19-.23 2.04-1.28 2.03-2.48-.061-4.85-.038-5.062-.14-8.33l11.67 4.67c1.275.51 2.732-.096 3.25-1.39.498-1.235-.05-2.71-1.39-3.25 0 0 0 0-.01 0l-13.69-5.47c-.905-28.394-.729-18.969-.729-33.883 6.264-4.439 9.968-11.546 9.975-19.29 0-12.92-15.454-22.584-15.572-41.933-.01-1.793-1.859-2.999-3.511-2.271-18.065 7.982-28.279 30.971-28.269 44.206.006 7.791 3.742 14.923 10.058 19.354.008 16.623.134 3.116-.552 33.707l-43.94 17.55c-2.073.829-2.105 3.786 0 4.65l19.139 7.641-31.035 12.399c-2.089.834-2.094 3.807 0 4.643l19.153 7.653s.335-.137-31.047 12.403c-2.104.833-2.104 3.807 0 4.64l67.42 26.945v17.625c0 1.38 1.12 2.5 2.5 2.5s2.5-1.12 2.5-2.5v-15.627l8.55 3.417c.605.242 1.266.238 1.86 0l8.811-3.521v38.48c-.011 5.3-4.32 9.61-9.62 9.62-5.28-.01-9.59-4.32-9.601-9.62v-2.75c0-1.38-1.12-2.5-2.5-2.5s-2.5 1.12-2.5 2.5v2.75c0 8.06 6.55 14.62 14.601 14.62 8.06 0 14.62-6.561 14.62-14.62v-40.479l24.449-9.771c1.271-.51 1.9-1.97 1.391-3.25-.5-1.24-1.98-1.89-3.23-1.4-.01 0-.01.011-.02.011l-37.331 14.91-74.24-29.659 30.125-12.031 43.188 17.258c.592.237 1.256.24 1.855 0l43.187-17.258 30.128 12.031-18.343 7.329c-1.263.49-1.913 1.965-1.39 3.24.521 1.316 1.986 1.907 3.25 1.4.18-.072 24.161-9.661 24.161-9.661 2.118-.87 2.017-3.817-.022-4.628zm-90.512-91.82-.004-7.675c11.373-.03 7.497-.02 17.318-.046v7.721zm11.938-66.113c.975 9.187 4.981 16.389 8.583 22.372l-4.994 2.966-10.119-10.119c-.804-.806-2.02-.935-2.953-.434l-7.051 3.797c4.128-8.102 9.96-14.676 16.534-18.582zm-22.001 37.928c.006-3.393.834-7.617 2.34-11.982l10.911-5.876 10.178 10.178c.834.835 2.104.941 3.044.382l6.688-3.973c2.51 4.281 4.19 7.775 4.19 11.271-.005 6.249-3.063 12.004-8.218 15.487h-20.846c-5.197-3.476-8.282-9.196-8.287-15.487zm9.986 33.245v-.056h17.48c1.051 32.818.93 31.687.93 31.687-6.19.97-12.85.98-19.16.03.509-22.57.553-25.814.75-31.661zm8.69 89.293-62.34-24.911 30.109-12.03 31.301 12.498c.557.23 1.234.25 1.86 0l31.301-12.498 30.109 12.03z"/><path d="m163.56 113.91c1.279.512 2.733-.099 3.25-1.39.528-1.33-.145-2.772-1.4-3.25-1.26-.51-2.74.14-3.24 1.39-.499 1.237.06 2.714 1.39 3.25z"/><circle cx="116.02" cy="226.13" r="2.5"/><path d="m75.667 216.456c-3.283-1.076-5.799-1.795-7.497-9.104-.597-2.573-4.275-2.566-4.87 0-1.667 7.179-3.986 7.945-7.496 9.104-2.279.753-2.284 3.993 0 4.748 5.831 1.927 6.493 4.782 7.496 9.104.599 2.578 4.272 2.578 4.871 0 1.665-7.178 3.985-7.944 7.496-9.104 2.278-.752 2.283-3.993 0-4.748zm-9.888 6.022c-.799-1.289-1.882-2.51-3.413-3.593 1.258-.897 2.392-2.088 3.377-3.793.992 1.721 2.105 2.902 3.256 3.759-1.194.871-2.274 2.018-3.22 3.627z"/><path d="m170.279 73.611c5.831 1.927 6.493 4.782 7.496 9.104.599 2.578 4.272 2.578 4.871 0 1.665-7.178 3.985-7.944 7.496-9.104 2.279-.753 2.284-3.994 0-4.748-3.282-1.076-5.799-1.795-7.497-9.104-.597-2.573-4.275-2.566-4.87 0-1.667 7.179-3.986 7.945-7.496 9.104-2.279.754-2.284 3.994 0 4.748zm9.94-6.112c.992 1.721 2.105 2.902 3.256 3.759-1.195.872-2.275 2.018-3.221 3.627-.799-1.289-1.882-2.51-3.413-3.593 1.259-.897 2.393-2.088 3.378-3.793z"/><path d="m213.427 94.328c-3.283-1.076-5.799-1.795-7.497-9.104-.597-2.573-4.275-2.566-4.87 0-1.667 7.179-3.986 7.945-7.496 9.104-2.279.753-2.284 3.993 0 4.748 5.831 1.927 6.493 4.782 7.496 9.104.599 2.578 4.272 2.578 4.871 0 1.665-7.178 3.985-7.944 7.496-9.104 2.278-.753 2.283-3.993 0-4.748zm-9.888 6.022c-.799-1.289-1.882-2.51-3.413-3.593 1.258-.897 2.392-2.088 3.377-3.793.992 1.721 2.105 2.902 3.256 3.759-1.194.871-2.274 2.018-3.22 3.627z"/></g></g></g></svg>