<svg height="60" viewBox="0 0 60 60" width="60" xmlns="http://www.w3.org/2000/svg"><g id="Page-1" fill="none" fill-rule="evenodd"><g id="027---UI-Design" fill-rule="nonzero" transform="translate(-1 -1)"><path id="Rectangle-path" d="m50 14h10v32h-10z" fill="#ffdc00"/><path id="Rectangle-path" d="m57 14h3v32h-3z" fill="#fec108"/><path id="Shape" d="m60 50v6c0 2.209139-1.790861 4-4 4h-2c-2.209139 0-4-1.790861-4-4v-6z" fill="#ef314c"/><path id="Shape" d="m57 50v6c-.0031591 2.0110723-1.5039294 3.7047987-3.5 3.95.1654323.027294.3324389.0439946.5.05h2c2.209139 0 4-1.790861 4-4v-6z" fill="#bb193b"/><path id="Rectangle-path" d="m50 46h10v4h-10z" fill="#7f8e94"/><path id="Shape" d="m57.29 6.44c-1.4353615.74670604-3.1446385.74670604-4.58 0l1.35-3.78c.1435417-.39548448.5192718-.65882556.94-.65882556s.7964583.26334108.94.65882556z" fill="#37474f"/><path id="Shape" d="m60 14h-10l2.71-7.56c1.4353615.74670604 3.1446385.74670604 4.58 0z" fill="#ffe0b2"/><path id="Shape" d="m53.5 6.761c-.2724192-.08311413-.5368163-.19054637-.79-.321l-.189.529c.3326141-.03550629.6606816-.10520807.979-.208z" fill="#dfc49c"/><path id="Shape" d="m57.29 6.44c-.7060673.37108821-1.4923622.56336994-2.29.56-.176 0-.349-.014-.521-.031l2.521 7.031h3z" fill="#dfc49c"/><circle id="Oval" cx="5" cy="5" fill="#ffdc00" r="3"/><circle id="Oval" cx="5" cy="57" fill="#ffdc00" r="3"/><circle id="Oval" cx="43" cy="5" fill="#ffdc00" r="3"/><circle id="Oval" cx="43" cy="57" fill="#ffdc00" r="3"/><path id="Shape" d="m43 8v46c-1.6568542 0-3 1.3431458-3 3h-32c0-1.6568542-1.34314575-3-3-3v-46c1.65685425 0 3-1.34314575 3-3h32c0 1.65685425 1.3431458 3 3 3z" fill="#f5f5f5"/><path id="Shape" d="m40 5h-3c0 1.65685425 1.3431458 3 3 3v46c-1.6568542 0-3 1.3431458-3 3h3c0-1.6568542 1.3431458-3 3-3v-46c-1.6568542 0-3-1.34314575-3-3z" fill="#cfd8dc"/><rect id="Rectangle-path" fill="#02a9f4" height="10" rx="2" width="12" x="9" y="11"/><rect id="Rectangle-path" fill="#ef314c" height="10" rx="2" width="12" x="27" y="11"/><rect id="Rectangle-path" fill="#ef314c" height="10" rx="2" width="12" x="9" y="33"/><rect id="Rectangle-path" fill="#02a9f4" height="10" rx="2" width="12" x="27" y="33"/><circle id="Oval" cx="54" cy="56" fill="#f5f5f5" r="1"/><g fill="#000"><path id="Shape" d="m60.941 13.663-4.057-11.335c-.2842675-.79600938-1.0382551-1.3273725-1.8835-1.3273725s-1.5992325.53136312-1.8835 1.3273725l-4.058 11.335c-.0296714.1103504-.0494167.2231327-.059.337v42c.0033061 2.7600532 2.2399468 4.9966939 5 5h2c2.7600532-.0033061 4.9966939-2.2399468 5-5v-42c-.0095833-.1138673-.0293286-.2266496-.059-.337zm-1.941 35.337h-8v-2h8zm-5.7-41.256c1.1075064.34217268 2.2924936.34217268 3.4 0l1.88 5.256h-7.16zm-2.3 7.256h3v30h-3zm5 30v-30h3v30zm.022-39.146c-.6704788.17199515-1.3735212.17199515-2.044 0l1.022-2.854zm-.022 53.146h-2c-1.6568542 0-3-1.3431458-3-3v-5h8v5c0 1.6568542-1.3431458 3-3 3z"/><path id="Shape" d="m1 57c-.00250479 2.0117689 1.49236838 3.7110655 3.48804392 3.9650329 1.99567554.2539673 3.86851036-1.0167587 4.36995608-2.9650329h30.284c.483632 1.8873119 2.2589828 3.1498272 4.2004686 2.987103s3.4819102-1.7031486 3.6446344-3.6446344-1.0997911-3.7168366-2.987103-4.2004686v-44.284c1.8873119-.483632 3.1498272-2.25898276 2.987103-4.20046856-.1627242-1.94148579-1.7031486-3.48191026-3.6446344-3.64463444s-3.7168366 1.09979107-4.2004686 2.987103h-30.284c-.483632-1.88731193-2.25898276-3.14982718-4.20046856-2.987103-1.94148579.16272418-3.48191026 1.70314865-3.64463444 3.64463444-.16272418 1.9414858 1.09979107 3.71683656 2.987103 4.20046856v44.284c-1.76068514.4545933-2.99318518 2.0395884-3 3.858zm4 2c-1.1045695 0-2-.8954305-2-2s.8954305-2 2-2 2 .8954305 2 2-.8954305 2-2 2zm3.858-53h30.284c.3658904 1.39931452 1.4586855 2.49210961 2.858 2.858v44.284c-1.3993145.3658904-2.4921096 1.4586855-2.858 2.858h-30.284c-.36589039-1.3993145-1.45868548-2.4921096-2.858-2.858v-44.284c1.39931452-.36589039 2.49210961-1.45868548 2.858-2.858zm36.142 51c0 1.1045695-.8954305 2-2 2s-2-.8954305-2-2 .8954305-2 2-2 2 .8954305 2 2zm-2-54c1.1045695 0 2 .8954305 2 2s-.8954305 2-2 2-2-.8954305-2-2 .8954305-2 2-2zm-40 2c0-1.1045695.8954305-2 2-2s2 .8954305 2 2-.8954305 2-2 2c-.53043298 0-1.03914081-.21071368-1.41421356-.58578644-.37507276-.37507275-.58578644-.88378058-.58578644-1.41421356z"/><path id="Shape" d="m11 22h8c1.6568542 0 3-1.3431458 3-3v-6c0-1.6568542-1.3431458-3-3-3h-8c-1.65685425 0-3 1.3431458-3 3v6c0 1.6568542 1.34314575 3 3 3zm-1-9c0-.5522847.4477153-1 1-1h8c.5522847 0 1 .4477153 1 1v6c0 .5522847-.4477153 1-1 1h-8c-.5522847 0-1-.4477153-1-1z"/><path id="Shape" d="m29 22h8c1.6568542 0 3-1.3431458 3-3v-6c0-1.6568542-1.3431458-3-3-3h-8c-1.6568542 0-3 1.3431458-3 3v6c0 1.6568542 1.3431458 3 3 3zm-1-9c0-.5522847.4477153-1 1-1h8c.5522847 0 1 .4477153 1 1v6c0 .5522847-.4477153 1-1 1h-8c-.5522847 0-1-.4477153-1-1z"/><path id="Shape" d="m19 24h-8c-.5522847 0-1 .4477153-1 1s.4477153 1 1 1h8c.5522847 0 1-.4477153 1-1s-.4477153-1-1-1z"/><path id="Shape" d="m19 28h-8c-.5522847 0-1 .4477153-1 1s.4477153 1 1 1h8c.5522847 0 1-.4477153 1-1s-.4477153-1-1-1z"/><path id="Shape" d="m37 24h-8c-.5522847 0-1 .4477153-1 1s.4477153 1 1 1h8c.5522847 0 1-.4477153 1-1s-.4477153-1-1-1z"/><path id="Shape" d="m37 28h-8c-.5522847 0-1 .4477153-1 1s.4477153 1 1 1h8c.5522847 0 1-.4477153 1-1s-.4477153-1-1-1z"/><path id="Shape" d="m11 44h8c1.6568542 0 3-1.3431458 3-3v-6c0-1.6568542-1.3431458-3-3-3h-8c-1.65685425 0-3 1.3431458-3 3v6c0 1.6568542 1.34314575 3 3 3zm-1-9c0-.5522847.4477153-1 1-1h8c.5522847 0 1 .4477153 1 1v6c0 .5522847-.4477153 1-1 1h-8c-.5522847 0-1-.4477153-1-1z"/><path id="Shape" d="m29 44h8c1.6568542 0 3-1.3431458 3-3v-6c0-1.6568542-1.3431458-3-3-3h-8c-1.6568542 0-3 1.3431458-3 3v6c0 1.6568542 1.3431458 3 3 3zm-1-9c0-.5522847.4477153-1 1-1h8c.5522847 0 1 .4477153 1 1v6c0 .5522847-.4477153 1-1 1h-8c-.5522847 0-1-.4477153-1-1z"/><path id="Shape" d="m19 46h-8c-.5522847 0-1 .4477153-1 1s.4477153 1 1 1h8c.5522847 0 1-.4477153 1-1s-.4477153-1-1-1z"/><path id="Shape" d="m19 50h-8c-.5522847 0-1 .4477153-1 1s.4477153 1 1 1h8c.5522847 0 1-.4477153 1-1s-.4477153-1-1-1z"/><path id="Shape" d="m37 46h-8c-.5522847 0-1 .4477153-1 1s.4477153 1 1 1h8c.5522847 0 1-.4477153 1-1s-.4477153-1-1-1z"/><path id="Shape" d="m37 50h-8c-.5522847 0-1 .4477153-1 1s.4477153 1 1 1h8c.5522847 0 1-.4477153 1-1s-.4477153-1-1-1z"/></g></g></g></svg>