<svg height="512" viewBox="0 0 256 256" width="512" xmlns="http://www.w3.org/2000/svg"><path d="m128 206.268a78.268 78.268 0 1 1 78.268-78.268 78.357 78.357 0 0 1 -78.268 78.268zm0-151.536a73.268 73.268 0 1 0 73.268 73.268 73.351 73.351 0 0 0 -73.268-73.268z" fill="#ebe7f2"/><path d="m146.159 159.84h-3.141l5.3-15.151a7.508 7.508 0 0 0 -.6-6.362l-13.188-22.363a7.527 7.527 0 0 0 -10.92-2.371 7.631 7.631 0 0 0 -2.129 2.35l-13.181 22.368a7.5 7.5 0 0 0 -.623 6.35l5.31 15.179h-3.141a6.546 6.546 0 1 0 0 13.092h.461v12.807a2.5 2.5 0 0 0 5 0v-12.807h25.4v12.807a2.5 2.5 0 0 0 5 0v-12.807h.461a6.546 6.546 0 1 0 0-13.092zm-18.159-20.409a2.667 2.667 0 1 1 -2.667 2.667 2.67 2.67 0 0 1 2.667-2.667zm-15.618 3.55a2.486 2.486 0 0 1 .21-2.115l12.908-21.894v15.886a7.667 7.667 0 1 0 5 0v-15.885l12.918 21.91a2.491 2.491 0 0 1 .19 2.126l-5.888 16.831h-19.44zm33.777 24.951h-36.318a1.546 1.546 0 1 1 0-3.092h36.318a1.546 1.546 0 1 1 0 3.092z" fill="#65c1d6"/><path d="m128 29.167a98.833 98.833 0 1 0 98.833 98.833 98.945 98.945 0 0 0 -98.833-98.833zm0 192.666a93.833 93.833 0 1 1 93.833-93.833 93.939 93.939 0 0 1 -93.833 93.833z" fill="#846f75"/><path d="m121 93.1h-24.333a2.5 2.5 0 0 0 0 5h11.042a44.071 44.071 0 0 0 -23.5 36.893 2.5 2.5 0 0 0 2.391 2.607h.11a2.5 2.5 0 0 0 2.5-2.392 39 39 0 0 1 32.21-36.555 2.5 2.5 0 0 0 2.052-2.776 2.559 2.559 0 0 0 .028-.279 2.5 2.5 0 0 0 -2.5-2.498z" fill="#846f75"/><path d="m148.283 98.1h11.05a2.5 2.5 0 0 0 0-5h-24.333a2.891 2.891 0 0 0 -.088 5.612 39.062 39.062 0 0 1 31.884 36.5 2.5 2.5 0 0 0 2.5 2.392h.11a2.5 2.5 0 0 0 2.389-2.606 44.157 44.157 0 0 0 -23.512-36.898z" fill="#846f75"/><g fill="#65c1d6"><path d="m88.989 104.761a9.5 9.5 0 1 1 9.5-9.5 9.511 9.511 0 0 1 -9.5 9.5zm0-14a4.5 4.5 0 1 0 4.5 4.5 4.5 4.5 0 0 0 -4.5-4.5z"/><path d="m166.333 104.761a9.5 9.5 0 1 1 9.5-9.5 9.511 9.511 0 0 1 -9.5 9.5zm0-14a4.5 4.5 0 1 0 4.5 4.5 4.5 4.5 0 0 0 -4.5-4.5z"/><path d="m128 104.761a9.5 9.5 0 1 1 9.5-9.5 9.511 9.511 0 0 1 -9.5 9.5zm0-14a4.5 4.5 0 1 0 4.5 4.5 4.5 4.5 0 0 0 -4.5-4.5z"/><path d="m86.667 151.6a9.5 9.5 0 1 1 9.5-9.5 9.511 9.511 0 0 1 -9.5 9.5zm0-14a4.5 4.5 0 1 0 4.5 4.5 4.5 4.5 0 0 0 -4.5-4.5z"/><path d="m169.333 151.6a9.5 9.5 0 1 1 9.5-9.5 9.511 9.511 0 0 1 -9.5 9.5zm0-14a4.5 4.5 0 1 0 4.5 4.5 4.505 4.505 0 0 0 -4.5-4.5z"/></g></svg>