<svg id="Capa_1" enable-background="new 0 0 512 512" height="512" viewBox="0 0 512 512" width="512" xmlns="http://www.w3.org/2000/svg" xmlns:xlink="http://www.w3.org/1999/xlink"><linearGradient id="SVGID_1_" gradientUnits="userSpaceOnUse" x1="225.816" x2="864.887" y1="256" y2="256"><stop offset=".0007011211" stop-color="#fff0d5"/><stop offset=".5112" stop-color="#ffdfff"/><stop offset="1" stop-color="#d9ceff"/></linearGradient><path d="m505.626 291.918c-11.826-34.61-38.138-60.16-69.852-72.202-16.43-6.239-27.346-21.856-27.587-39.429-.005-.384-.012-.769-.021-1.154-1.507-64.582-55.488-116.33-120.077-115.221-38.094.654-71.788 19.355-92.905 47.92-18.185 24.599-46.49 39.965-77.08 39.949-.898 0-1.797.009-2.7.029-61.917 1.354-114.567 54.478-115.393 116.403-.879 65.932 52.303 119.654 118.032 119.654 50.947 0 94.349-32.277 110.886-77.497 4.327-11.832 17.152-18.174 29.283-14.772.151.042.303.085.455.127 11.099 3.064 18.458 13.64 17.55 25.119-1.217 15.383.581 31.255 5.798 46.796 20.521 61.135 87.188 94.685 148.493 74.68 62.711-20.465 96.379-88.184 75.118-150.402z" fill="url(#SVGID_1_)"/><path d="m458.614 79.216h-369.928c-8.278 0-14.997 6.719-14.997 14.997v173.062l-32.753 58.527c-4.496 8.034-2.925 18.1 3.805 24.383l28.948 27.02v1.203c0 8.278 6.719 14.997 14.997 14.997h369.928c8.279 0 14.997-6.719 14.997-14.997v-284.195c0-8.278-6.718-14.997-14.997-14.997z" fill="#590bb2" opacity=".1"/><path d="m473.611 115.209v284.195c0 8.278-6.719 14.997-14.997 14.997h-369.928c-8.278 0-14.997-6.719-14.997-14.997v-284.195c0-8.278 6.719-14.997 14.997-14.997h369.928c8.278 0 14.997 6.719 14.997 14.997z" fill="#f5f4f9"/><path d="m340.665 375.151h-162.201c-1.657 0-2.999-1.343-2.999-2.999v-155.602c0-1.657 1.343-2.999 2.999-2.999h162.202c1.657 0 2.999 1.343 2.999 2.999v155.601c0 1.657-1.343 3-3 3z" fill="#ffe783"/><path d="m473.611 195.528v-80.318c0-8.278-6.719-14.997-14.997-14.997h-369.928c-8.278 0-14.997 6.719-14.997 14.997v80.318z" fill="#ddd9e4"/><path d="m473.611 148.374v-33.165c0-8.283-6.714-14.997-14.997-14.997h-369.928c-8.283 0-14.997 6.714-14.997 14.997v33.165z" fill="#c182f9"/><path d="m224.952 72.025c-1.326 0-2.598-.526-3.536-1.465l-10.993-10.993c-1.953-1.952-1.953-5.118 0-7.07l10.993-10.993c.938-.938 2.209-1.465 3.536-1.465s2.598.526 3.536 1.465l10.993 10.993c1.953 1.952 1.953 5.118 0 7.07l-10.993 10.993c-.939.939-2.21 1.465-3.536 1.465zm-3.922-15.993 3.922 3.922 3.922-3.922-3.922-3.922z" fill="#c182f9"/><path d="m376.449 489c-2.762 0-5-2.238-5-5 0-3.316-2.697-6.014-6.014-6.014-2.762 0-5-2.238-5-5s2.238-5 5-5c3.316 0 6.014-2.697 6.014-6.014 0-2.762 2.238-5 5-5s5 2.238 5 5c0 3.316 2.697 6.014 6.014 6.014 2.762 0 5 2.238 5 5s-2.238 5-5 5c-3.316 0-6.014 2.697-6.014 6.014 0 2.762-2.238 5-5 5z" fill="#ffe783"/><path d="m444.855 380.385h-75.985c-1.657 0-2.999-1.343-2.999-2.999v-187.964c0-1.657 1.343-2.999 2.999-2.999h75.985c1.657 0 2.999 1.343 2.999 2.999v187.964c.001 1.656-1.342 2.999-2.999 2.999z" fill="#cecae0"/><path d="m444.855 380.385h-75.985c-1.657 0-2.999-1.343-2.999-2.999v-187.964c0-1.657 1.343-2.999 2.999-2.999h75.985c1.657 0 2.999 1.343 2.999 2.999v187.964c.001 1.656-1.342 2.999-2.999 2.999z" fill="#cecae0"/><path d="m447.855 208.907h-81.984v-19.486c0-1.657 1.343-2.999 2.999-2.999h75.985c1.657 0 2.999 1.343 2.999 2.999v19.486z" fill="#afabc6"/><path d="m365.871 267.478h81.984v22.485h-81.984z" fill="#afabc6"/><g fill="#ddd9e4"><path d="m398.948 310.661h-20.329c-1.657 0-2.999-1.343-2.999-2.999v-2.5c0-1.657 1.343-2.999 2.999-2.999h20.329c1.657 0 2.999 1.343 2.999 2.999v2.5c0 1.656-1.343 2.999-2.999 2.999z"/><path d="m435.107 310.661h-20.329c-1.657 0-2.999-1.343-2.999-2.999v-2.5c0-1.657 1.343-2.999 2.999-2.999h20.329c1.657 0 2.999 1.343 2.999 2.999v2.5c.001 1.656-1.342 2.999-2.999 2.999z"/><path d="m398.948 324.908h-20.329c-1.657 0-2.999-1.343-2.999-2.999v-2.5c0-1.657 1.343-2.999 2.999-2.999h20.329c1.657 0 2.999 1.343 2.999 2.999v2.5c0 1.656-1.343 2.999-2.999 2.999z"/><path d="m435.107 324.908h-20.329c-1.657 0-2.999-1.343-2.999-2.999v-2.5c0-1.657 1.343-2.999 2.999-2.999h20.329c1.657 0 2.999 1.343 2.999 2.999v2.5c.001 1.656-1.342 2.999-2.999 2.999z"/><path d="m398.948 339.155h-20.329c-1.657 0-2.999-1.343-2.999-2.999v-2.5c0-1.657 1.343-2.999 2.999-2.999h20.329c1.657 0 2.999 1.343 2.999 2.999v2.5c0 1.656-1.343 2.999-2.999 2.999z"/><path d="m435.107 339.155h-20.329c-1.657 0-2.999-1.343-2.999-2.999v-2.5c0-1.657 1.343-2.999 2.999-2.999h20.329c1.657 0 2.999 1.343 2.999 2.999v2.5c.001 1.656-1.342 2.999-2.999 2.999z"/></g><path d="m157.754 267.847v-78.425c0-1.657-1.343-2.999-2.999-2.999h-39.992c-1.657 0-2.999 1.343-2.999 2.999v78.425c0 1.657 1.343 2.999 2.999 2.999h39.992c1.657 0 2.999-1.343 2.999-2.999z" fill="#cecae0"/><path d="m157.754 267.847v-78.425c0-1.657-1.343-2.999-2.999-2.999h-39.992c-1.657 0-2.999 1.343-2.999 2.999v78.425c0 1.657 1.343 2.999 2.999 2.999h39.992c1.657 0 2.999-1.343 2.999-2.999z" fill="#cecae0"/><path d="m157.754 208.907h-45.991v-19.486c0-1.657 1.343-2.999 2.999-2.999h39.992c1.657 0 2.999 1.343 2.999 2.999v19.486z" fill="#afabc6"/><path d="m138.425 449h-53.323c-5.522 0-9.998-4.476-9.998-9.998v-21.996h73.319v21.996c0 5.522-4.476 9.998-9.998 9.998z" fill="#b557ff"/><path d="m75.104 417.006h73.319v19.994h-73.319z" fill="#9526dd"/><path d="m84.905 408.675h53.716l40.164-37.49c6.73-6.282 8.301-16.348 3.805-24.383l-64.489-115.236c-2.773-4.955-9.904-4.955-12.677 0l-64.488 115.236c-4.496 8.034-2.925 18.1 3.805 24.383z" fill="#ddd9e4"/><circle cx="111.763" cy="349.686" fill="#8e8ca8" r="19.965"/><path d="m152.528 425.201h-81.529c-5.522 0-9.998-4.476-9.998-9.998v-5.762c0-5.522 4.476-9.998 9.998-9.998h81.529c5.522 0 9.998 4.476 9.998 9.998v5.762c0 5.521-4.476 9.998-9.998 9.998z" fill="#ffa052"/><path d="m116.763 124.365v-.145c0-2.762-2.239-5-5-5s-5 2.238-5 5v.145c0 2.762 2.239 5 5 5s5-2.238 5-5z" fill="#590bb2"/><path d="m136.084 124.365v-.145c0-2.762-2.239-5-5-5s-5 2.238-5 5v.145c0 2.762 2.239 5 5 5s5-2.238 5-5z" fill="#590bb2"/><path d="m155.405 124.365v-.145c0-2.762-2.239-5-5-5s-5 2.238-5 5v.145c0 2.762 2.239 5 5 5s5-2.238 5-5z" fill="#590bb2"/><path d="m458.614 95.212h-369.928c-11.026 0-19.997 8.971-19.997 19.997v5.63c0 2.762 2.239 5 5 5s5-2.238 5-5v-5.63c0-5.513 4.485-9.997 9.997-9.997h369.928c5.513 0 9.997 4.484 9.997 9.997v28.165h-394.922c-2.761 0-5 2.238-5 5v138.598l-32.116 57.389c-5.636 10.07-3.68 22.604 4.757 30.479l22.801 21.282c-4.822 2.498-8.131 7.525-8.131 13.318v5.762c0 7.968 6.251 14.486 14.104 14.953v8.847c0 8.27 6.728 14.998 14.998 14.998h53.323c8.27 0 14.998-6.729 14.998-14.998v-8.847c7.853-.467 14.104-6.985 14.104-14.953v-5.762c0-5.794-3.309-10.821-8.13-13.318l22.801-21.283c8.436-7.875 10.392-20.409 4.756-30.479l-64.489-115.236c-2.199-3.93-6.199-6.275-10.702-6.275s-8.503 2.346-10.702 6.275l-22.373 39.978v-115.728h389.922v246.027c0 5.513-4.484 9.997-9.997 9.997h-267.197c-2.761 0-5 2.238-5 5s2.239 5 5 5h267.198c11.026 0 19.997-8.971 19.997-19.997v-284.192c0-11.026-8.97-19.997-19.997-19.997zm-320.189 348.788h-53.323c-2.756 0-4.998-2.242-4.998-4.998v-8.802h63.319v8.802c0 2.756-2.242 4.998-4.998 4.998zm19.101-28.798c0 2.756-2.242 4.998-4.999 4.998h-81.528c-2.756 0-4.998-2.242-4.998-4.998v-5.762c0-2.756 2.242-4.998 4.998-4.998h81.529c2.756 0 4.999 2.242 4.999 4.998v5.762zm-45.763-80.481c8.251 0 14.965 6.714 14.965 14.966s-6.713 14.965-14.965 14.965-14.965-6.713-14.965-14.965 6.714-14.966 14.965-14.966zm-5-95.308v85.811c-11.378 2.322-19.965 12.408-19.965 24.462 0 13.766 11.199 24.965 24.965 24.965s24.965-11.199 24.965-24.965c0-12.054-8.587-22.14-19.965-24.462v-85.812l61.464 109.832c3.381 6.042 2.208 13.562-2.854 18.286l-28.549 26.647c-.088.082-.151.178-.232.265h-69.658c-.08-.086-.144-.183-.232-.265l-28.549-26.647c-5.062-4.725-6.235-12.244-2.854-18.286z" fill="#590bb2"/><path d="m342.593 445.049-10.993-10.993c-.938-.938-2.209-1.465-3.535-1.465s-2.598.527-3.536 1.465l-10.992 10.993c-1.952 1.952-1.952 5.118 0 7.07l10.992 10.993c.938.938 2.21 1.465 3.536 1.465s2.598-.526 3.535-1.465l10.993-10.993c1.953-1.952 1.953-5.118 0-7.07zm-14.529 7.457-3.922-3.922 3.922-3.922 3.922 3.922z" fill="#ffa052"/><path d="m259.564 44.014c3.316 0 6.014 2.697 6.014 6.014 0 2.762 2.238 5 5 5s5-2.238 5-5c0-3.316 2.697-6.014 6.014-6.014 2.762 0 5-2.238 5-5s-2.238-5-5-5c-3.316 0-6.014-2.697-6.014-6.014 0-2.762-2.238-5-5-5s-5 2.238-5 5c0 3.316-2.697 6.014-6.014 6.014-2.761 0-5 2.238-5 5s2.239 5 5 5z" fill="#ffa052"/><path d="m327.468 334.156v-89.638c0-5.514-4.485-9.999-9.999-9.999h-111.312c-5.514 0-9.999 4.485-9.999 9.999v89.638c0 5.514 4.485 9.999 9.999 9.999h111.312c5.513 0 9.999-4.485 9.999-9.999zm-34.488 0v-53.906h24.49l.004 53.905zm24.488-89.637.002 25.731h-111.313v-25.73zm-111.311 35.731h76.823v53.906l-76.823.001z" fill="#ffa052"/><path d="m115.795 177.978h19.344c2.227 0 4.032-1.805 4.032-4.032s-1.805-4.032-4.032-4.032h-19.344c-2.227 0-4.032 1.805-4.032 4.032s1.805 4.032 4.032 4.032z" fill="#cecae0"/><path d="m161.786 177.978h19.344c2.227 0 4.032-1.805 4.032-4.032s-1.805-4.032-4.032-4.032h-19.344c-2.227 0-4.032 1.805-4.032 4.032s1.805 4.032 4.032 4.032z" fill="#cecae0"/><path d="m207.777 177.978h19.344c2.227 0 4.032-1.805 4.032-4.032s-1.805-4.032-4.032-4.032h-19.344c-2.227 0-4.032 1.805-4.032 4.032s1.805 4.032 4.032 4.032z" fill="#cecae0"/><path d="m253.768 177.978h19.344c2.227 0 4.032-1.805 4.032-4.032s-1.805-4.032-4.032-4.032h-19.344c-2.227 0-4.032 1.805-4.032 4.032s1.805 4.032 4.032 4.032z" fill="#cecae0"/><path d="m299.759 177.978h19.344c2.227 0 4.032-1.805 4.032-4.032s-1.805-4.032-4.032-4.032h-19.344c-2.227 0-4.032 1.805-4.032 4.032s1.806 4.032 4.032 4.032z" fill="#cecae0"/></svg>