<svg height="512" viewBox="0 0 256 256" width="512" xmlns="http://www.w3.org/2000/svg"><g fill="#846f75"><path d="m192.436 114.314a15.342 15.342 0 0 0 0-21.7l-4.536-4.541a15.364 15.364 0 0 0 -21.7 0l-101.341 101.337a14.461 14.461 0 0 0 -3.525 5.767l-7.985 24.8a5.706 5.706 0 0 0 7.187 7.187l24.8-7.985a14.459 14.459 0 0 0 5.767-3.524zm-22.706-22.7a10.357 10.357 0 0 1 14.629 0l4.541 4.536a10.344 10.344 0 0 1 0 14.629l-7.058 7.058-19.17-19.171zm-80.4 118.739-19.17-19.17 88.978-88.983 19.17 19.171zm-30.33 12.047a.711.711 0 0 1 -.895-.9l2-6.2 5.1 5.1zm24.8-7.985-13.249 4.267-8.724-8.724 4.266-13.249a9.39 9.39 0 0 1 .782-1.746l18.671 18.67a9.354 9.354 0 0 1 -1.746.782z"/><path d="m92.862 153.3a2.5 2.5 0 0 0 1.768-4.268l-39.12-39.12a3.454 3.454 0 0 1 0-4.877l19.015-19.016a3.454 3.454 0 0 1 4.877 0l10.639 10.64-5.341 5.346a2.5 2.5 0 0 0 3.536 3.536l5.346-5.347 14.849 14.849-5.346 5.347a2.5 2.5 0 1 0 3.536 3.535l5.346-5.346 6.56 6.561a2.5 2.5 0 1 0 3.535-3.536l-39.125-39.121a8.459 8.459 0 0 0 -11.947 0l-19.015 19.017a8.457 8.457 0 0 0 0 11.947l39.12 39.12a2.489 2.489 0 0 0 1.767.733z"/><path d="m198.025 197.573-39.12-39.121a2.5 2.5 0 1 0 -3.535 3.535l6.561 6.561-5.347 5.347a2.5 2.5 0 0 0 3.536 3.535l5.346-5.347 14.849 14.85-5.346 5.346a2.5 2.5 0 1 0 3.535 3.535l5.347-5.346 10.639 10.64a3.454 3.454 0 0 1 0 4.877l-19.015 19.015a3.533 3.533 0 0 1 -4.877 0l-39.12-39.121a2.5 2.5 0 1 0 -3.535 3.536l39.12 39.12a8.449 8.449 0 0 0 11.947 0l19.015-19.015a8.457 8.457 0 0 0 0-11.947z"/></g><path d="m131.348 97.114h-6.7a5.452 5.452 0 0 1 -5.278-4.087l-1.493-5.792-5.148 3.039a5.454 5.454 0 0 1 -6.625-.841l-4.729-4.733a5.452 5.452 0 0 1 -.844-6.622l3.04-5.152-5.79-1.491a5.455 5.455 0 0 1 -4.088-5.28v-6.696a5.453 5.453 0 0 1 4.085-5.278l5.793-1.493-3.039-5.149a5.452 5.452 0 0 1 .843-6.624l4.733-4.734a5.453 5.453 0 0 1 6.621-.844l5.152 3.041 1.493-5.79a5.451 5.451 0 0 1 5.278-4.088h6.7a5.452 5.452 0 0 1 5.278 4.085l1.493 5.793 5.149-3.039a5.452 5.452 0 0 1 6.623.842l4.734 4.734a5.453 5.453 0 0 1 .844 6.623l-3.041 5.15 5.791 1.492a5.453 5.453 0 0 1 4.085 5.278v6.695a5.453 5.453 0 0 1 -4.085 5.279l-5.794 1.493 3.039 5.149a5.451 5.451 0 0 1 -.842 6.624l-4.733 4.734a5.453 5.453 0 0 1 -6.622.843l-5.151-3.041-1.492 5.79a5.453 5.453 0 0 1 -5.28 4.09zm-11.875-16.221a2.5 2.5 0 0 1 2.421 1.876l2.321 9.008a.452.452 0 0 0 .437.337h6.7a.452.452 0 0 0 .438-.34l2.32-9a2.5 2.5 0 0 1 3.691-1.53l8.012 4.729a.452.452 0 0 0 .547-.072l4.734-4.733a.452.452 0 0 0 .07-.55l-4.727-8.01a2.5 2.5 0 0 1 1.529-3.691l9.009-2.321a.453.453 0 0 0 .336-.438v-6.699a.453.453 0 0 0 -.337-.437l-9.012-2.322a2.5 2.5 0 0 1 -1.529-3.692l4.729-8.008a.453.453 0 0 0 -.072-.548l-4.734-4.734a.456.456 0 0 0 -.549-.07l-8.01 4.728a2.5 2.5 0 0 1 -3.691-1.53l-2.321-9.008a.452.452 0 0 0 -.437-.336h-6.7a.451.451 0 0 0 -.437.338l-2.321 9.007a2.5 2.5 0 0 1 -3.692 1.529l-8.011-4.729a.453.453 0 0 0 -.548.072l-4.729 4.731a.454.454 0 0 0 -.071.55l4.727 8.009a2.5 2.5 0 0 1 -1.528 3.692l-9.009 2.321a.452.452 0 0 0 -.336.437v6.695a.454.454 0 0 0 .339.439l9.006 2.32a2.5 2.5 0 0 1 1.528 3.691l-4.728 8.012a.453.453 0 0 0 .072.548l4.734 4.733a.454.454 0 0 0 .55.07l8.006-4.727a2.5 2.5 0 0 1 1.273-.347z" fill="#ed9abc"/><path d="m128 75.569a12.762 12.762 0 1 1 12.762-12.762 12.776 12.776 0 0 1 -12.762 12.762zm0-20.524a7.762 7.762 0 1 0 7.762 7.762 7.771 7.771 0 0 0 -7.762-7.762z" fill="#ed9abc"/></svg>